<?xml version="1.0" standalone="no"?>
<!DOCTYPE svg PUBLIC "-//W3C//DTD SVG 20010904//EN"
 "http://www.w3.org/TR/2001/REC-SVG-20010904/DTD/svg10.dtd">
<svg version="1.0" xmlns="http://www.w3.org/2000/svg"
 width="1152.000000pt" height="1152.000000pt" viewBox="0 0 1152.000000 1152.000000"
 preserveAspectRatio="xMidYMid meet">
<metadata>
Created by potrace 1.11, written by Peter Selinger 2001-2013
</metadata>
<g transform="translate(0.000000,1152.000000) scale(0.100000,-0.100000)"
fill="#000000" stroke="none">
<path d="M5388 11515 c-2 -2 -46 -6 -98 -9 -52 -3 -113 -9 -135 -12 -22 -3
-58 -7 -80 -9 -70 -7 -118 -15 -310 -50 -16 -3 -41 -8 -55 -11 -14 -3 -35 -8
-46 -10 -12 -2 -75 -18 -140 -35 -66 -17 -125 -32 -131 -32 -7 0 -13 -4 -13
-9 0 -5 -4 -7 -8 -4 -4 2 -51 -10 -104 -29 -53 -18 -99 -31 -102 -27 -3 3 -6
0 -6 -7 0 -7 -4 -10 -8 -7 -4 2 -21 -2 -37 -9 -33 -16 -84 -37 -100 -41 -66
-18 -416 -183 -530 -251 -27 -16 -57 -32 -65 -36 -8 -4 -28 -16 -45 -27 -16
-11 -43 -27 -59 -36 -16 -9 -51 -32 -78 -50 -26 -19 -50 -34 -54 -34 -3 0 -32
-20 -64 -45 -32 -25 -61 -45 -64 -45 -3 0 -16 -8 -28 -19 -13 -10 -70 -56
-128 -103 -131 -104 -137 -110 -218 -183 -77 -70 -272 -266 -320 -322 -91
-105 -262 -322 -262 -332 0 -6 -4 -11 -8 -11 -8 0 -170 -240 -206 -305 -9 -16
-26 -46 -38 -65 -62 -104 -155 -289 -228 -455 -70 -158 -165 -439 -207 -610
-8 -32 -23 -98 -29 -125 -2 -14 -7 -33 -10 -42 -3 -9 -6 -25 -8 -35 -8 -43
-16 -90 -21 -113 -8 -43 -18 -104 -21 -135 -1 -16 -3 -30 -4 -30 -1 0 -3 -16
-5 -35 -2 -19 -6 -57 -10 -85 -26 -238 -27 -656 0 -905 10 -100 15 -136 20
-160 3 -14 7 -38 9 -55 4 -27 8 -52 20 -125 4 -22 18 -88 30 -145 2 -11 9 -40
16 -65 7 -25 13 -52 15 -60 8 -40 60 -215 86 -290 17 -47 31 -89 32 -95 6 -23
61 -161 69 -169 4 -6 8 -15 8 -22 0 -6 23 -60 50 -118 28 -58 50 -109 50 -112
0 -3 9 -19 21 -35 11 -16 17 -29 14 -29 -3 0 3 -14 15 -30 12 -17 23 -37 24
-45 1 -9 8 -21 14 -27 7 -7 12 -16 12 -20 0 -5 12 -27 27 -51 15 -23 26 -45
25 -49 -1 -5 3 -8 10 -8 6 0 9 -3 5 -6 -3 -3 -1 -11 4 -18 9 -10 25 -33 61
-91 92 -145 260 -375 280 -383 4 -2 8 -10 8 -17 0 -7 3 -15 8 -17 4 -1 47 -49
96 -106 126 -148 300 -319 460 -455 12 -10 32 -28 46 -40 45 -41 240 -187 249
-187 5 0 11 -3 13 -7 6 -14 309 -213 324 -213 2 0 21 -10 42 -23 41 -26 302
-163 315 -165 4 -1 29 -11 55 -23 238 -107 602 -228 828 -274 16 -3 40 -9 54
-12 14 -3 32 -7 40 -8 8 -1 31 -5 50 -9 83 -15 97 -17 125 -22 17 -2 41 -7 55
-10 14 -3 54 -8 90 -10 58 -4 105 -10 105 -14 0 -1 43 -4 95 -7 206 -13 733
-5 815 11 11 2 49 7 85 11 36 3 72 8 80 10 13 4 81 15 120 20 8 1 29 5 45 8
17 4 44 9 60 12 17 3 41 7 55 10 14 3 36 8 50 11 39 8 182 44 215 55 17 5 71
21 120 35 50 15 96 31 104 38 8 6 15 9 15 7 1 -5 127 36 176 57 19 9 37 16 40
17 10 3 65 26 85 35 11 5 43 19 70 31 100 43 310 151 317 162 4 7 8 8 8 4 0
-5 10 -1 22 7 38 27 52 19 83 -47 16 -34 33 -64 36 -67 4 -3 9 -15 13 -27 4
-13 13 -29 19 -36 7 -7 29 -46 50 -87 49 -95 103 -196 126 -235 9 -16 37 -68
62 -115 24 -47 47 -87 52 -88 4 -2 7 -7 7 -12 0 -4 49 -95 108 -202 147 -261
160 -284 199 -355 19 -35 39 -65 44 -69 5 -3 9 -14 9 -24 0 -10 4 -20 8 -22 5
-1 35 -49 67 -106 32 -57 64 -110 72 -118 8 -8 12 -14 8 -14 -3 0 10 -25 30
-55 19 -31 35 -57 35 -60 0 -2 18 -33 40 -67 22 -35 40 -69 40 -75 0 -7 5 -13
10 -13 6 0 10 -4 10 -9 0 -5 23 -47 52 -93 28 -46 56 -93 62 -105 6 -13 14
-23 19 -23 4 0 7 -5 7 -10 0 -6 15 -34 34 -63 18 -28 62 -97 97 -152 35 -55
88 -135 117 -178 28 -43 52 -82 52 -87 0 -5 3 -10 8 -12 4 -1 33 -42 65 -89
32 -47 69 -97 81 -110 13 -14 25 -30 27 -36 20 -55 302 -363 332 -363 9 0 17
-4 19 -10 6 -17 76 -18 92 -1 18 22 46 77 41 83 -3 2 0 20 5 39 11 43 25 141
35 244 18 188 30 481 40 965 6 248 6 210 3 303 -2 42 0 77 4 77 4 0 4 10 -1
23 -5 12 -5 32 0 45 5 12 5 22 -1 22 -5 0 -5 13 0 30 5 17 5 30 0 30 -5 0 -5
13 0 30 5 17 5 30 1 30 -4 0 -4 26 -1 58 3 33 3 73 -1 90 -4 18 -2 32 3 32 5
0 5 7 -1 18 -6 11 -6 24 0 35 7 11 7 17 0 17 -6 0 -7 11 -2 28 5 15 5 36 1 47
-4 11 -4 34 1 52 4 18 3 35 -1 38 -5 3 -5 18 0 34 4 16 6 32 3 35 -10 9 -10
51 0 64 5 6 6 12 1 12 -5 0 -10 114 -11 253 -4 601 -11 1006 -17 1015 -3 6 -2
13 4 17 6 4 8 11 4 16 -3 6 -8 97 -10 202 -2 106 -6 288 -8 404 -3 117 -7 217
-10 222 -4 5 -2 12 4 16 6 4 8 10 5 15 -3 5 -8 96 -10 202 -3 106 -7 261 -10
343 -8 215 -16 498 -19 656 -2 75 -7 142 -11 149 -6 9 -4 11 5 5 9 -5 11 -4 6
4 -4 6 -9 71 -11 144 -3 73 -7 202 -10 287 -10 282 -16 473 -20 645 -2 94 -5
170 -6 170 -1 0 -3 18 -4 40 -6 86 -21 230 -25 230 0 0 -3 20 -5 45 -2 25 -6
59 -10 75 -4 17 -8 44 -9 61 -2 16 -6 39 -9 50 -3 10 -8 35 -11 54 -3 19 -10
50 -15 68 -5 18 -10 36 -11 40 -3 20 -13 64 -32 137 -11 44 -21 85 -23 90 -1
6 -5 17 -8 25 -3 8 -8 27 -11 42 -3 15 -10 37 -15 50 -5 13 -9 26 -10 30 -1 4
-8 23 -17 43 -8 19 -14 37 -13 40 1 10 -72 200 -93 239 -5 10 -11 26 -13 35
-1 9 -21 53 -43 99 -22 45 -38 82 -35 82 3 0 1 6 -5 13 -5 6 -34 57 -62 112
-64 122 -120 218 -134 227 -6 4 -7 8 -3 8 9 0 -31 61 -48 72 -5 4 -6 8 -2 8 9
0 -43 73 -56 78 -4 2 -5 7 -3 11 3 4 -15 33 -40 64 -24 31 -44 59 -44 62 0 2
-7 13 -15 22 -8 10 -37 47 -65 83 -136 173 -254 304 -404 449 -43 42 -90 88
-104 104 -14 15 -29 27 -33 27 -4 0 -20 12 -36 28 -44 43 -110 97 -213 175
-52 40 -96 75 -98 80 -2 4 -10 7 -18 7 -8 0 -14 5 -14 10 0 6 -6 10 -13 10 -8
0 -22 9 -32 20 -10 11 -24 20 -32 20 -7 0 -13 4 -13 8 0 4 -27 24 -60 43 -33
18 -60 37 -60 42 0 4 -5 7 -12 7 -6 0 -19 6 -27 14 -9 8 -23 16 -31 18 -8 2
-17 6 -20 10 -34 45 -776 385 -807 370 -2 -1 -23 7 -48 18 -25 11 -45 17 -45
13 0 -3 -6 -1 -12 5 -11 8 -61 23 -85 24 -5 0 -19 5 -33 10 -14 5 -32 12 -40
14 -82 21 -179 45 -195 48 -11 2 -31 6 -45 10 -14 3 -36 8 -50 10 -14 2 -36 7
-50 10 -14 3 -43 8 -65 12 -22 3 -51 8 -65 10 -14 3 -41 6 -60 8 -19 2 -51 6
-70 9 -42 7 -127 17 -195 23 -61 5 -593 13 -597 9z"/>
</g>
</svg>
