<?xml version="1.0" encoding="UTF-8" standalone="no"?>
<svg width="19px" height="19px" viewBox="0 0 19 19" version="1.1" xmlns="http://www.w3.org/2000/svg" xmlns:xlink="http://www.w3.org/1999/xlink">
    <!-- Generator: Sketch 39 (31667) - http://www.bohemiancoding.com/sketch -->
    <title>Shape</title>
    <desc>Created with Sketch.</desc>
    <defs></defs>
    <g id="Page-1" stroke="none" stroke-width="1" fill="none" fill-rule="evenodd">
        <g id="Artboard-15" transform="translate(-265.000000, -200.000000)" fill="#444444">
            <path d="M283.961083,214.987233 C284.00128,215.295728 283.907431,215.563956 283.67993,215.791917 L281.008978,218.447275 C280.888484,218.581388 280.731205,218.695484 280.537075,218.789265 C280.342946,218.883178 280.152197,218.943529 279.964827,218.970319 C279.951439,218.970319 279.911176,218.97377 279.844202,218.980476 C279.777359,218.987149 279.690335,218.990567 279.58323,218.990567 C279.328788,218.990567 278.917067,218.94698 278.348067,218.859774 C277.779067,218.772567 277.082912,218.557951 276.259601,218.216027 C275.436094,217.874036 274.502297,217.360984 273.458048,216.677069 C272.413799,215.993187 271.302543,215.054323 270.124378,213.860676 C269.187202,212.93529 268.410685,212.050138 267.794826,211.205253 C267.178967,210.360302 266.683603,209.579089 266.308732,208.861579 C265.933829,208.144069 265.652676,207.493617 265.465241,206.910221 C265.277806,206.326825 265.150618,205.823898 265.083676,205.401439 C265.016735,204.97898 264.989959,204.647048 265.003347,204.405643 C265.016735,204.164238 265.023429,204.030124 265.023429,204.003301 C265.050206,203.815542 265.110453,203.624429 265.204171,203.429964 C265.297888,203.235499 265.411688,203.077915 265.54557,202.957212 L268.216523,200.281639 C268.403958,200.09388 268.61817,200 268.859158,200 C269.033205,200 269.187169,200.050293 269.321052,200.150878 C269.454934,200.251464 269.568734,200.375519 269.662452,200.523044 L271.811263,204.606814 C271.931757,204.821396 271.965227,205.056096 271.911674,205.310912 C271.858122,205.565729 271.744322,205.780311 271.570275,205.954659 L270.58624,206.940397 C270.559463,206.967219 270.536034,207.010806 270.515951,207.071158 C270.495869,207.131509 270.485828,207.181802 270.485828,207.222036 C270.539381,207.503675 270.659875,207.825549 270.84731,208.187656 C271.007969,208.50953 271.255651,208.901813 271.590357,209.364506 C271.925063,209.827199 272.400345,210.360269 273.016204,210.963782 C273.618674,211.580772 274.154203,212.060164 274.622791,212.40222 C275.091281,212.744079 275.483018,212.995641 275.797641,213.156578 C276.112265,213.317515 276.353253,213.414747 276.520573,213.448177 L276.771537,213.498503 C276.798313,213.498503 276.841924,213.488411 276.902105,213.468327 C276.962352,213.448177 277.005864,213.42474 277.032673,213.397884 L278.177334,212.231093 C278.418453,212.016544 278.699475,211.909253 279.020825,211.909253 C279.248491,211.909253 279.429134,211.949454 279.563016,212.029955 L279.583065,212.029955 L283.458926,214.323304 C283.740177,214.497783 283.907497,214.719005 283.961083,214.987233 L283.961083,214.987233 Z" id="Shape"></path>
        </g>
    </g>
</svg>