<svg xmlns="http://www.w3.org/2000/svg" viewBox="0 0 298 298" enable-background="new 0 0 298 298"><path d="m149 130.42c-18.01 0-32.667 14.654-32.667 32.666 0 18.01 14.654 32.667 32.667 32.667s32.667-14.654 32.667-32.667c0-18.01-14.654-32.666-32.667-32.666"/><path d="m273.25 64.08h-9.25v-3.417c0-13.669-11.08-24.75-24.75-24.75h-65.5c-13.669 0-24.75 11.08-24.75 24.75v3.417h-124.25c-13.669 0-24.75 11.08-24.75 24.751v148.5c0 13.669 11.08 24.75 24.75 24.75h248.5c13.669 0 24.75-11.08 24.75-24.75v-148.5c0-13.67-11.08-24.751-24.75-24.751m-227.32 66.33c-11.05 0-20-8.954-20-20 0-11.05 8.954-20 20-20s20 8.954 20 20c0 11.05-8.954 20-20 20m103.07 105.33c-40.07 0-72.67-32.599-72.67-72.67s32.599-72.67 72.67-72.67 72.67 32.598 72.67 72.67-32.599 72.67-72.67 72.67"/></svg>