<?xml version="1.0" encoding="UTF-8" standalone="no"?>
<svg width="50px" height="45px" viewBox="0 0 50 45" version="1.1" xmlns="http://www.w3.org/2000/svg" xmlns:xlink="http://www.w3.org/1999/xlink">
    <!-- Generator: Sketch 39 (31667) - http://www.bohemiancoding.com/sketch -->
    <title>Shape</title>
    <desc>Created with Sketch.</desc>
    <defs>
        <linearGradient x1="61.8694233%" y1="72.1621172%" x2="26.7527751%" y2="15.3326425%" id="linearGradient-1">
            <stop stop-color="#BE0048" offset="0%"></stop>
            <stop stop-color="#FF2E00" offset="100%"></stop>
        </linearGradient>
    </defs>
    <g id="Page-1" stroke="none" stroke-width="1" fill="none" fill-rule="evenodd">
        <g id="Artboard-15" transform="translate(-710.000000, -451.000000)" fill="url(#linearGradient-1)">
            <path d="M730.833,451 C742.339,451 751.666,458.643 751.666,468.07 C751.666,477.498 742.339,485.14 730.833,485.14 C729.728,485.14 728.644,485.069 727.585,484.933 C723.11,489.446 717.942,490.255 712.777,490.374 L712.777,489.269 C715.566,487.891 717.807,485.382 717.807,482.513 C717.807,482.113 717.776,481.72 717.719,481.336 C713.007,478.206 709.995,473.426 709.995,468.069 C709.995,458.641 719.322,450.999 730.828,450.999 M753.224,489.259 C753.224,491.718 754.8,493.869 757.217,495.05 L757.217,495.997 C752.741,495.895 748.633,495.202 744.754,491.333 C743.836,491.449 742.897,491.511 741.939,491.511 C737.795,491.511 733.979,490.379 730.929,488.477 C737.208,488.455 743.136,486.418 747.632,482.735 C749.898,480.878 751.686,478.695 752.945,476.26 C754.28,473.673 754.955,470.917 754.955,468.068 C754.955,467.609 754.935,467.152 754.9,466.698 C758.05,469.332 759.989,472.922 759.989,476.879 C759.989,481.471 757.378,485.568 753.295,488.251 C753.245,488.58 753.219,488.917 753.219,489.261" id="Shape"></path>
        </g>
    </g>
</svg>