<?xml version="1.0" encoding="UTF-8" standalone="no"?>
<svg width="87px" height="87px" viewBox="0 0 87 87" version="1.1" xmlns="http://www.w3.org/2000/svg" xmlns:xlink="http://www.w3.org/1999/xlink">
    <!-- Generator: Sketch 39 (31667) - http://www.bohemiancoding.com/sketch -->
    <title>Combined Shape</title>
    <desc>Created with Sketch.</desc>
    <defs></defs>
    <g id="Page-1" stroke="none" stroke-width="1" fill="none" fill-rule="evenodd">
        <g id="Artboard-15" transform="translate(-593.000000, -171.000000)" fill="#FF1C50">
            <path d="M653.844085,214.155419 L677.91327,190.086234 C679.861789,188.137715 679.868659,184.966719 677.917086,183.015145 L667.365635,172.463695 C665.411048,170.509107 662.248227,170.513829 660.294546,172.46751 L636.225361,196.536695 L612.156176,172.46751 C610.207657,170.518991 607.036661,170.512121 605.085087,172.463695 L594.533637,183.015145 C592.57905,184.969732 592.583771,188.132553 594.537452,190.086234 L618.606637,214.155419 L594.537452,238.224604 C592.588933,240.173123 592.582063,243.344119 594.533637,245.295693 L605.085087,255.847144 C607.039674,257.801731 610.202495,257.797009 612.156176,255.843328 L636.225361,231.774143 L660.294546,255.843328 C662.243065,257.791847 665.414062,257.798717 667.365635,255.847144 L677.917086,245.295693 C679.871673,243.341106 679.866951,240.178285 677.91327,238.224604 L653.844085,214.155419 Z" id="Combined-Shape"></path>
        </g>
    </g>
</svg>