<?xml version="1.0" encoding="UTF-8" standalone="no"?>
<svg width="50px" height="53px" viewBox="0 0 50 53" version="1.1" xmlns="http://www.w3.org/2000/svg" xmlns:xlink="http://www.w3.org/1999/xlink">
    <!-- Generator: Sketch 39 (31667) - http://www.bohemiancoding.com/sketch -->
    <title>Shape</title>
    <desc>Created with Sketch.</desc>
    <defs>
        <linearGradient x1="61.8694233%" y1="72.1621172%" x2="26.7527751%" y2="15.3326425%" id="linearGradient-1">
            <stop stop-color="#BE0048" offset="0%"></stop>
            <stop stop-color="#FF2E00" offset="100%"></stop>
        </linearGradient>
    </defs>
    <g id="Page-1" stroke="none" stroke-width="1" fill="none" fill-rule="evenodd">
        <g id="Artboard-15" transform="translate(-850.000000, -457.000000)" fill="url(#linearGradient-1)">
            <path d="M900,468.11 L893.629,462.555 L887.259,457 L880.888,462.555 L874.517,468.11 L881.489,468.11 C879.142,482.529 865.819,493.745 850.658,491.36 C849.991,491.256 849.721,492.153 850.376,492.381 C869.243,498.947 890.98,488.158 894.124,468.109 L899.999,468.109 M885.869,486.738 C883.91,488.549 881.72,490.127 879.347,491.446 L879.347,509.358 L885.869,509.358 L885.869,486.738 M869.565,509.358 L876.087,509.358 L876.087,493.043 C874.015,493.926 871.833,494.622 869.565,495.109 L869.565,509.357 M889.13,509.357 L895.652,509.357 L895.652,469.738 L895.487,469.738 C894.464,474.795 892.242,479.371 889.13,483.236 L889.13,509.356 M856.521,495.542 C854.306,495.218 852.125,494.699 849.999,493.969 L849.999,509.356 L856.521,509.356 L856.521,495.542 M859.782,509.356 L866.304,509.356 L866.304,495.656 C864.821,495.836 863.309,495.93 861.774,495.93 C861.108,495.93 860.444,495.905 859.782,495.869 L859.782,509.355" id="Shape"></path>
        </g>
    </g>
</svg>