<svg viewBox="0 0 170 46" xmlns="http://www.w3.org/2000/svg"><defs><linearGradient x1="47.7132291%" y1="-5.78002003%" x2="47.7132287%" y2="95.0769601%" id="0"><stop stop-color="#ff0040" offset="0%"/><stop stop-color="#ea3000" offset="100%"/></linearGradient></defs><g fill="none" fill-rule="evenodd"><path d="m25.787 34.519c0-1.904-.714-3.498-2.142-4.783-1.428-1.285-3.96-2.366-7.596-3.241-4.398-1.047-7.83-2.589-10.295-4.626-2.466-2.037-3.698-4.598-3.698-7.682 0-3.237 1.328-5.94 3.984-8.111 2.656-2.17 6.097-3.256 10.324-3.256 4.55 0 8.172 1.247 10.866 3.741 2.694 2.494 3.993 5.388 3.898 8.682l-.057.171h-5.369c0-2.437-.804-4.407-2.413-5.912-1.609-1.504-3.917-2.256-6.925-2.256-2.799 0-4.945.633-6.44 1.899-1.495 1.266-2.242 2.918-2.242 4.955 0 1.809.809 3.318 2.427 4.526 1.618 1.209 4.246 2.27 7.882 3.184 4.379 1.085 7.711 2.684 9.995 4.798 2.285 2.113 3.427 4.731 3.427 7.854 0 3.351-1.371 6.04-4.112 8.08-2.742 2.037-6.321 3.056-10.738 3.056-4.15 0-7.82-1.123-11.01-3.37-3.189-2.247-4.736-5.255-4.641-9.02l.057-.171h5.369c0 2.665.98 4.693 2.941 6.083 1.961 1.39 4.388 2.085 7.282 2.085 2.837 0 5.083-.6 6.74-1.799 1.656-1.199 2.485-2.827 2.485-4.883m61.46 5.912c-.971 1.656-2.218 2.932-3.741 3.827-1.523.895-3.284 1.342-5.283 1.342-3.37 0-5.997-1.076-7.882-3.227-1.885-2.151-2.827-5.502-2.827-10.05v-18.22h5.626v18.277c0 3.294.485 5.559 1.456 6.797.971 1.238 2.485 1.856 4.541 1.856 1.999 0 3.651-.405 4.955-1.214 1.304-.809 2.289-1.956 2.956-3.441v-22.275h5.626v30.9h-5.05l-.371-4.569m19.705 4.569h-5.626v-30.9h5.626v30.9m0-38.811h-5.626v-5.74h5.626v5.74m17.963 24.56h-3.655v14.251h-5.626v-44.551h5.626v25.817h3.598l8.453-12.166h6.74l-10.567 14.05 12.08 16.849h-6.626l-10.02-14.251m38.639 6.05c0-1.238-.471-2.256-1.414-3.056-.942-.8-2.727-1.495-5.355-2.085-3.751-.819-6.573-1.928-8.468-3.327-1.894-1.399-2.842-3.308-2.842-5.726 0-2.513 1.066-4.655 3.199-6.426 2.132-1.771 4.912-2.656 8.339-2.656 3.598 0 6.459.923 8.582 2.77 2.123 1.847 3.137 4.093 3.041 6.74l-.057.171h-5.369c0-1.352-.566-2.565-1.699-3.641-1.133-1.076-2.632-1.614-4.498-1.614-1.999 0-3.484.438-4.455 1.314-.971.876-1.456 1.932-1.456 3.17 0 1.218.428 2.18 1.285 2.884.857.704 2.599 1.333 5.226 1.885 3.903.838 6.806 1.975 8.71 3.413 1.904 1.437 2.856 3.365 2.856 5.783 0 2.742-1.109 4.96-3.327 6.654-2.218 1.694-5.117 2.542-8.696 2.542-3.941 0-7.04-1-9.31-2.999-2.266-1.999-3.341-4.331-3.227-6.997l.057-.171h5.369c.095 1.999.838 3.46 2.228 4.384 1.39.923 3.02 1.385 4.883 1.385 1.999 0 3.565-.405 4.698-1.214 1.133-.809 1.699-1.871 1.699-3.184" fill="#fff"/><path d="m54.951 36.28c-1.808 1.045-3.91 1.644-6.153 1.644-6.763 0-12.245-5.444-12.245-12.16 0-6.716 5.482-12.16 12.245-12.16 6.763 0 12.245 5.444 12.245 12.16 0 .04 0 .079-.001.119.001-.001.714 18.416.001 19.596-.638 1.055-5.142-7.392-6.093-9.199" fill="url(#0)"/></g></svg>