<svg viewBox="0 0 1036 611" xmlns="http://www.w3.org/2000/svg"><g fill="none" fill-rule="evenodd"><g fill="#cdcdcd"><path d="m852.96 352.16l-2.52 9.49-13.7 4.63-4.09-4.81-1.99.54 3.71 14.35 5.57.62 7.42 2.81v2.81l3.39-.62 4.96-6.86v-5.61l2.78-5.61 3.09.63-3.71-7.8-.57-5.02z"/><path d="m930.64 378.28l-.4 26.73 3.84-.21 5.06-5.92 4.25.21 2.74 2.45.9 7.54 8.7 4.6 2.23-.82v-2.76l-6.98-5.82-3.44-7.96 2.73-1.32-2.02-4.38-4.05-.1-1.01-4.69-10.72-7.24z"/><path d="m148.97 243.95l5.28 16.63-2.46 1.38.28 3.3 4.64 3.57v6.62l5.74 5.51-2.46-16.25-3.28-10.75.82-7.43 2.73.27 1.1 2.48-1.1 6.33 14.21 27.82v9.92l11.47 13.49 12.57 5.78 5.19-3.02 7.38 6.05 4.37-4.4-1.91-4.97 6.28-1.92 1.91 1.1 1.92-1.92h3l5.47-9.65-2.74-2.48-10.65 2.48-2.46 7.17-6.28 1.1-7.38-3.03-3.28-10.46 2.48-13.2-5.07-3.16-2.41-12.67-2.03-.87-3.69 3.75-4.24-2.26-1.66-8.45-16.8-1.76-8.67-6.53z"/><path d="m564.55 154.54l-6.12-.22-3.87 2.37-.06 1.77 2.51 2.37 7.82 1.32z"/><path d="m516.59 246.2l-4.46-1.5-18.55 3.49-4.05 3.07 2.47 12.76-7.37.3-4.44 7.14-10.57 2.53.03 5.2 34.81 26.62 5.93.51 19.8-15.48-1.98-2.49-3.72-.5-2.23-3.74v-15.47l-1.48-1.5.25-3.99-3.96-3.99-.49-4.25 1.73-1.24-.75-4.5z"/><path d="m488.62 251.44h-12.62l-2.47 5.49-5.69 2.74-4.7 12.73-9.16 5.49-12.86 21.2 12.62-.25.49-6.24h3.22v-8.48h11.13l.25-10.98 10.65-2.49 4.46-7.24 6.93-.25z"/><path d="m441.21 299.96l2.38 3.12-.49 13.47 3.46-2.49 2.47-.51 3.47 1.25 3.95 5.49 3.72-2.49 18.06-.26-4.46-30.18 4.79-.03-8.92-6.83.01 4.44-11.29.01-.05 8.47-3.25-.01-.41 6.26z"/><path d="m446.91 314.9l-4.3 3.13-.99 1.75-.3 1.74 1.58 1.14 5.29-.07 3.4-.92.38 1.67-.3 2.21 3.24 1.59.68.77 4.3.15.16-1.9-3.94-4.72-4.38-5.94-2.72-1.14z"/><path d="m443.38 323.67l-.14 1.21 7.56-.11.38-1.12-.16-1.14-2.17.88z"/><path d="m443.27 325.72l1.36 3.29.75-2.03 9.19.96-3.98-2.04z"/><path d="m445.25 330.44l1.53 3.02 4.3-3.69.04-1.14-5.06-.73z"/><path d="m447.24 334.16l3.32 5.12 4.33-3.76 4.44-.2 3.69 4.91 3.14 2.07 1.18-2.3 1.05-.59-.08-5.05-2.09-5.99-6.4.71-7.93-.63-.04 2.03z"/><path d="m451.08 339.84l6.17 5.97 4.4-5.35-2.75-4.32-3.79.39z"/><path d="m457.89 346.46l12 8.03-.28-6.08-3.63-4.27-3.54-3.14z"/><path d="m470.9 354.73l4.68-3.31 5.81-1.02 5.93 1.28-3.02-4.58-.89-2.8.89-8.28-5.3.25-2.41-2.29-5.05.13-2.4.38.25 5.6-1.27.51-1.52 2.8 3.92 4.58z"/><path d="m457.12 320.93l3.36-2.3 18.71-.11-4.32-30.11 4.94-.15 23.9 18.25 3.21.46-1.21 10.15-15.03 1.36-11.6 8.66-2.1 5.93-8.06.34-2.05-5.92-6.18.44.24-1.93z"/><path d="m491.14 319.23l3.98-.32 6.52 9.23-6.05 4.57-4.39-1.13-5.89.08-.95 3.46-4.94.24-1.35-1.85 1.75-5.62z"/><path d="m502.39 327.67l2.79-.07 2.51-3.77 4.22-.75 4.49 2.74 9.59.27 7.41-3.01 2.78-2.4.21-3.15 5.17-5.21 1.37-11.52-3.4-7.12-8.7-2.13-20.13 15.71-2.85-.28-1.23 10.9-10.27 1.03z"/><path d="m484.31 344.13l1.22 2.87 3.19 5.01 1.77-.07 4.83-2.74-.33-15.63-3.74-1.09-5.24.14z"/><path d="m496.2 348.72l2.93-1.72-.07-11.32-1.9-3.08-1.22 1.03z"/><path d="m500.01 346.79h2.32l.13-6.58 2.93-4.25-.13-7.4-2.66-.07-4.56 3.56 1.91 3.63z"/><path d="m503.14 346.66l4.28.21 5.17 5.76 2.51.69 1.97-.96 3-.42 1.01-4.17 4.08-2.68 4.41-.21 8.09-14.88-.13-3.36-3.74-2.87-7.47 3.29-10-.15-4.77-3.01-3.4.75-1.77 3.09-.13 8.7-2.85 4.04z"/><path d="m517.72 246.03l6.04-2.44 1.99 1.29.07 1.57-.92 1.22.14 2.15.93.5v3.87l-1.07 1.8.14 1.14 4.05 1.44-3.27 5.08-1.27-.08-.22 4.09-1.42.22-1.22-1.07.29-4.15-3.98-3.87-.5-3.37 1.92-1.51z"/><path d="m523.33 268.66l1.71-.29.5-3.93h.85l3.49-5.73 8.6 2.5 2.35 3.65 8.46 3.88 4.4-1.86-.42-1.86-1.93-1.86.22-1.29 3.13-2.65h6.18l2.35 3.15 4.97.72.65 40.34-3.7-.14-22.31-11.62-2.42 1.37-9.16-2.29-2.5-3.3-3.62-.5-1.85-3.29z"/><path d="m569.1 263.22l2.92.08 5.68 1.58 2.7.07 3.34-2.8h1.57l2.84 1.58h3.59l.65-.05 2.27 6.54.65 2.11.6 3.16-1.07.79-1.85-.93-2.13-6.95-1.92-.15-.15 2.37 1.28 4.09 10.24 12.68.22 5.44-2.98 3.45-28.02-.32z"/><path d="m537.26 321.11l.14-3.23 5.18-5.04 1.39-12.37-3.46-6.61 2.42-1.23 23.38 12.19-.14 11.96-4.12 3.51v6.17l2.7 5.22h-4.76l-7.89 7.81-.21 2.36-5.83-.08-.07 1.08-3.32-.44-2.28-4.3-1.7-.84.22-1.31 2.14-1.64v-7.68l-2.96-.46-3.58-2.65z"/><path d="m567.16 317.21l.19-12.94 2.69.08-.31-7.19 28.2.26 4.03-4.07 8.7 13.92-4.76 5.62v8.58l-7.5 16.13-2.58 1.13.82 4.5h3.21l4.36 6.33-3.49.45-.9 1.63-.09 2.35-10.49-.19-1.07-1.63-7.33-.41-13.47-13.87 1.35-.81.36-3.25-3.23-1.91-2.93-5.8.16-5.4z"/><path d="m520.9 352.03l3.51 3.24-.25 5 19.3-.44 1.58-1.78-5.53-5.95-.82-2.16 3.52-6.59-2.4-4.37-2.01-1.09v-2.22l2.33-1.52.13-6.91-1.85-.2-.03 3.63-8.11 15.14-4.96.25-3.4 2.34z"/><path d="m607.11 319.69l-.27-6.44 4.32-5.05 1.17.89 2.13 7.13 10.23 7.62-1.86 2.29-7.48-6.44z"/><path d="m623.25 327.17l-.62 3.67 4.32-.07.07-5.4-1.58-.97z"/><path d="m599.22 338.34l7.95-17.71 7.91.04 7 6.09-.49 5.02h5.43l.56 3.02 8.78 5.26 5.42.27-10.3 11.08-14.15 4.36h-3.51l-6.25-5.34-2.47-1.03-4.79-7.06-3.16.05-.37-3.24z"/><path d="m627.91 330.99l4.45 3.04 1.33-.06 11.07-3.81 1.25 4.06-.88 3.42-2.39 1.9-5.98-.38-8.56-5.26z"/><path d="m654 325.1l2.33 2.6 3.15-1.9 1.13-.38-1.44-1.4-2.76.82z"/><path d="m645.64 329.91l4.78-1.84 1.69 1.02-.18 4.24-4.41 12.56-23.83 25.54-2.77-1.91-.18-10.78 3.58-4.12 7.61-2.35 11.15-11.79 2.92-2.6.82-3.8z"/><path d="m540.39 351.78l5.09 5.51 2.02-2.6 3.2.13.69-2.54 3.14-1.97 6.54 4.51 3.77-3.74 14.63.64-13.57-14.01 1.82-1.14.25-2.47-3.08-1.46h-4.52l-7.29 7.23-.25 2.98-5.78-.19-.19 1.27-3.77-.38-3.4 6.46z"/><path d="m513.16 366.1l1.26-.63.94.76-.94 1.46-1.14-.45z"/><path d="m515.68 362.11l1.89-.32.64 1.21-.94 1.01-.94-.13z"/><path d="m519.83 355.45l-.51 2.16 1.51.82 1.44-1.09-.5-2.22z"/><path d="m530.26 361.16l-.13 2.72-6.16-.13-3.77 7.29 8.86 9.7 2.2-1.83-.07-1.91-1.51-.7v-1.33l3.4-2.15 3.02 2.28 3.33.07-.07-11.47-5.27-.25-.07-2.41z"/><path d="m524.36 361.23l-.07 1.52 4.97.25-.07-1.72z"/><path d="m535.3 361.04l-.07 1.59 5.23.13.18 13.57-4.77-.14-2.77-2.15-2.14 1.2-.1.6 1.11.54.31 2.79-2.95 2.54.64 1.33 3.26-2.54h1.58l.5 1.52 2.08.89 6.66-5.64-.13-4.13 1.39-3.35 4.27-3.17 1.15-10.73-3.04.01-3.52 4.82z"/><path d="m530.44 383.68l1.9 2.48 2.46-2.33-.72-2.42-.62-.04z"/><path d="m533.53 386.4l11.27-.2 2.28 3.25-.09 2.39.84.77h5.6l1.61-3.16h2.28l.93.94 3.14-.09.92 11.02 5.42.18v.85l14.57 6.57.68 1.28h3.05l-.34-4.62-5.51-2.64.34-3.5 2.37-5.55 5.42-.18-4.65-15.46.08-6.57 7.37-11.53.09-1.61-1.11-.61.05-3.12-1.35-.12-1.35-1.73-22.24-1.01-4.08 3.97-6.67-4.39-2.35 1.44-1.71 14.36-4.22 3.26-1.26 2.88.22 4.28-7.6 6.22-2.02-.92.27 1.19z"/><path d="m586.47 369.11l3.07 2.83-.13 3.03-4.77.1v-3.35z"/><path d="m584.71 376.01l4.66-.1-1.21 4.09-1.18 1.03h-1.44l-1.03-2.77z"/><path d="m586.99 368.22l3.31 3.11 2.08-1.32 5.61-.92.97.1.36-2.14 3.17-6.67-2.67-5.55-8.64.05-.06 2.29 1.16 1.11-.18 2.29z"/><path d="m600.68 354.48l2.91 5.67-3.49 7.32-.45 2.22 17.4 10.77 5.4-8.49-2.73-2.22-.05-11.17 3.42-3.74-5.46 1.82-4.12.05-6.44-5.45-2.04-.87-3.77.35-.66 1.12z"/><path d="m600.4 403.57l19.09-2.34-4.29-8.31-.23-7.96 1.38-3.8-18.16-11.42-5.69.94-1.98 1.47-.17 3.33-1.28 4.63-1.34 1.58-1.91.18 3.66 12.69 5.98 2.81 4.12.12z"/><path d="m561.04 418.09l3.46 4.81 5.37.33 1.9 1.05 5.61.07 4.85-6.79 13.52-6.06 1.18-5.34-1.57-7.64-7.06-4.02-4.71.33-2.35 5.2.07 2.37 5.55 2.7.33 5.88-4.78.26-1.18-1.98-13.27-5.67-.39 4.36-6.27.19z"/><path d="m532.7 387.49l3.73 13.92-.09 4.39-5.46 5.86-.82 9.53 20.99.18 6.82 2.47 5.62-.73-3.27-4.11.01-11.74 6.44-.28v-4.58l-5.23-.22-1.05-10.84-2.21.03-1.19-1.07-1.3.06-1.73 3.35h-6.64l-1.54-1.55.46-2.2-1.82-2.66z"/><path d="m596.67 412.3l3.4 3.55-.06 4.55.65 1.91 4.51-4.87-.52-6.2-2.41-1.85-2.16-10.88-3.72-.13 1.69 7.84z"/><path d="m590.13 449.34l2.94 2.44 6.92-4.22 1.12-6.26v-10.35l11.11-9.1 1.91.07 6.73-6.46-1.05-13.32-17.85 2.25.53 4.03 3.07 2.37.72 7.25-6.01 5.87-1.44-3.29.26-4.35-3.47-3.76-8.5 3.95 7.91 4.03.27 11.73-5.24 7.77z"/><path d="m572.08 426.4l9.81 11.08 7.52 1.91 5.03-7.9-.39-10.48-8.17-4.22-3.08 1.39-4.57 6.99-6.34-.07z"/><path d="m541.36 458.83l3.67.27 2.15 2.17 5.1.07 1.25-14.5v-9.49l3.27-.66 1.24-9.95 8.31-.26 2.94-2.44-4.98-.2-6.73.92-7.25-2.63h-20.4l.53 5.79 6.8 10.02-1.18 5.14.06 2.7z"/><path d="m554.43 447.1l2.35.72-.32 6.73 2.41.33 5.55-5.01 6.67.72 1.77-4.48 8.44-7.71-10.13-11.67-.14-1.91-1.11-.33-3.07 2.83-7.98.2-1.11 9.95-3.14.72z"/><path d="m589.8 450.13l-2.74.46-1.18 3.22 2.09 1.92h2.55l2.15-3.1z"/><path d="m575.09 462.58l3.33-2.57 1.58.07 1.9 2.37-.2 2.38-3.2 1.18v.91l-3.53-.19-.85-2.57z"/><path d="m578.32 459.02l1.65-.066 2.677 2.908-.076 3.368-3.136 1.585-.197 1.115-4.787.055-1.497-3.608 1.366-2.646 4-2.712m4.142-20.228l-8.633 7.982-2.055 4.931-6.841-.853-5.694 5.062-3.781-.372.306-6.998-1.344-.47-.94 14.313-6.71-.066-2.02-2.384-2.962-.033 2.699 7.752 4.819 4.559-3.442 4.01 2.229 5.03 5.158 1.968 4.109-3.499 11.77.066.841-1.05 5.224-.918 17.671-17.604-.066-5.544-1.891 2.449h-2.83l-3.442-2.887 1.749-4.352 3.01-.612-.273-8.944-6.655-1.542"/><path d="m349.66 52.21l-1.49 2.37 2.68 2.68-1.19 2.68 3.87 5.05 4.75-1.492 6.24-.586 7.14 7.726 4.75 12.79-3.85 8.02 5.34-.89 2.97 1.78.3 3.87-6.54.29 3.56 3.57 4.46.89-9.8 13.08-1.19 8.03 2.08 6.54-1.49 3.87 2.68 8.32 5.05 5.65 1.48-.3 3.27-.89.29 4.75 2.08 2.98 3.86-.3 2.97-11 8.92-11 13.38-5.34 8.31-10.41 3.86 1.78h8.02l6.54-6.54 8.02-3.27.89-5.05-5.05-4.46-4.45-1.49-2.39-6.24 5.65-3.27 8.92 4.76 2.97-3.27-4.75-2.68 10.11-13.68-1.78-5.95-4.76-.29 1.78-5.35 5.95-2.68 12.18-10.703-3.56-3.86-13.67 1.192-7.14 7.141 4.17-9.218-4.76-1.192-2.67 4.76-3.86-3.27-10.7 1.19 2.97-4.758 17.53-.59-4.46-5.952-19.01-3.561-7.73 1.192.3 3.871-8.03-2.679.3-2.683-5.65 1.196-1.19 2.974 5.94 2.077-6.24 4.461-4.45-5.05-6.24-1.787-.9 4.761h-6.24l-2.38-5.05-9.81-1.489-5.34 2.681-.3 3.565-6.83-.897-4.16 1.781.3 4.167v2.078l-7.73 1.485-3.56-2.371-2.39 3.86 3.57 3.871 7.43-.897.59 2.383-5.65 2.679z"/><path d="m373.44 98.59l1.78 2.68-.89 3.27h-1.79l-2.38-2.68.59-2.08z"/><path d="m447.73 91.16l5.05 1.48-.29 4.17-5.35-2.68-1.19-1.49z"/><path d="m347.96 605.91l-2.73.54-.6 2.79 5.21-.76z"/><path d="m352.35 601.61l-3.27.62.62 2.53 3.98-.14z"/><path d="m357.54 606.67l.02 3.89 2.24.1 1.82-2.88z"/><path d="m358.62 595.81l-2.36.93-.6 2.23 2.04.75 3.44-2.36z"/><path d="m830.55 465.42l-.38 27.75-4.27 3.12-.38 2.74 5.82 3.9 14.34-2.73h7.37l2.71-3.92 16.28-3.12 11.63 3.52-.78 4.69 1.56 4.69 8.91-1.57.39 2.34-5.82 4.3 1.94 1.56 4.26-1.56-1.16 12.9 8.14 6.26 4.66-1.57 2.33 2.34 13.57-1.95 12.8-20.72 4.65-1.17 9.3-17.2 2.33-14.85-5.82-7.43 2.33-1.56-4.65-14.46-5.04-3.53.77-19.53-4.65-3.53-1.16-10.94h-2.33l-7.76 25.79-4.26.4-9.69-9.78 5.43-14.46-10.08-1.96-11.24 3.13-3.1 8.98-5.04 1.17-.38-6.25-20.55 12.51.38 4.69-3.1 4.3h-7.76l-16.68 7.03z"/><path d="m901.11 540.07l-1.93 7.82.38 5.47 5.81-.4 6.59-10.15z"/><path d="m996.49 524.44l1.16 12.9-1.55 5.86-5.81 4.3.38 5.08v5.47l1.55 1.96 15.9-13.68v-3.13h-3.88l-5.43-18.37z"/><path d="m984.87 552.58l3.1 5.86-8.53 8.21-.78 4.3-5.81.78-9.7 8.98-8.92-4.29-.77-3.13 16.28-7.03z"/><path d="m989.52 457.2l-.38 1.96 5.04 7.03 2.71 1.17.38-2.73z"/><path d="m788.27 344.69l-.31 2.5 7.42 12.47h2.17l15.46 25.88 6.18.63 3.1-9.05-4.95-3.11-.93-4.99z"/><path d="m833.79 361.48l3.3 3.81 12.66-4.38 2.5-9.67 5.64-.4 5.16-3.74-6.69-4.88-1.53-2.68-3.3 6.09 1.21 3.5-2.01 2.92-3.79-.97-9.19 6.75.24 3.9z"/><path d="m850.88 346.53l-3.15 3.82 2.58.81 1.45-2.04z"/><path d="m861.54 379.18l2.47 3.03-1.61 4.55v.86h3.65l1.29-11.37 1.18.33 2.15 10.38 2.04.55 1.93-4.44-1.93-6.71-1.61-2.92 5.05-3.69-1.18-1.62-4.83 3.13h-1.29l-2.36-3.46.76-1.52 3.97-1.95 6.01 1.84 1.83-.11 4.51-4.22-1.82-1.84-4.19 3.25h-2.69l-4.07-1.95-2.9.11-3.22 5.2-2.05 8.98z"/><path d="m888.49 358.83l-2.04 4.98 3.22 4.22h1.07l1.4-2.81.75-.98-1.39-1.52-2.05-.75z"/><path d="m894.83 375.18l-4.41.97-1.29 1.41 1.08 1.84 2.89-1.08 1.83-1.09 2.69 2.17 1.18-.98-2.15-2.6z"/><path d="m821.81 389.25l-3.01 2.06.65 1.72 9.56 2.17 4.83.86 2.04 2.17 5.48.43 2.58 2.17 2.36-.55 2.15-1.94-3.98-1.84-3.43-2.92-8.92-2.17z"/><path d="m853.06 398.66l-2.36 1.3 1.4 1.52 3.43-1.3z"/><path d="m857.14 397.69l.42 2.06 2.47.64.96-1.19-1.07-1.63z"/><path d="m863.05 403.1l-3.01.44 2.69 2.27h2.14z"/><path d="m863.9 399.53l-.64 1.3 4.83.75 3.76-2.16-2.15-.65-3.43.98-1.29-1.09z"/><path d="m879.69 400.29l-5.58 4.66.53 1.19 2.36-.43 2.79-2.61 5.48-.75-1.07-1.84z"/><path d="m960.93 379.06l-.96 1.37 5.26 4.65.72 2.74 1.43-.17.17-2.81-1.6-1.44z"/><path d="m963.57 385.65l-1.04.24-.63 2.81-1.99 1.29-5.98 1.05.24 2.26 6.29-.32 3.99-2.49-.24-4.35z"/><path d="m970.66 390.55l1.35 3.77 2.4 2.33.72-.64-.24-2.5-2.71-3.29z"/><path d="m977.27 396.17l.17 2.49 1.51 1.45 1.44-.89-1.28-2.66z"/><path d="m979.18 402.36l-1.27 1.37 1.35 2.49 1.6.48-.08-1.68z"/><path d="m982.3 400.92l1.11 2.73 2.16 2.57 1.19-1.93-1.6-2.73z"/><path d="m987.88 405.02l.64 3.37 1.52 2.09 1.27-2.64z"/><path d="m989.63 412.57l-.56.96 1.84 2.42 1.28.08-.8-3.14z"/><path d="m985.57 417.38l-1.92.89 1.68 2.33 1.43-.81z"/><path d="m1005.07 431.78l-1.35 1.82.57 2.04.67.46 1.24-1.59z"/><path d="m1005.75 437.35l.11 1.47 1.46.46 1.02-.57-1.02-1.59z"/><path d="m1007.89 450.53l-.68 1.03 1.02 1.14 1.7-.57z"/><path d="m1035.4 448.26l-1.36 1.82-.11 2.04 1.58 1.6z"/><path d="m861.37 322.78l-.94 1.8-.53 2.2-5.22 6.64.32 1.37 2.19-.32 6.79-7.59z"/><path d="m869.82 320.26l-.1 5.47 1.98 2.01.74 3.89 1.99.42.94-2.42-1.57-1.16-.41-6.85z"/><path d="m875.47 322.37l-.1 4.84 1.14 1.89 1.99-2.32-.52-4.21z"/><path d="m876.72 318.15l1.99 2.63.94 2.53h1.78l-.32-4.32-1.99-1.37z"/><path d="m880.59 328.05l.41 3.16-3.66 2.95-3.02.32-3.24 3.48.11 1.58 3.03-.95 2.09-1.36 1.78 4.52 3.13 2.21 1.26-.43 1.15-1.36-2.51-2.53 1.47-1.16 1.67 1.37 1.15-1.89-1.15-2.32-.21-5.16z"/><path d="m863.56 295.93l-2.82 2-.31 6.32 4.39 8.53 1.46 1.16 1.88-1.27 3.24.52.62 2.85 2.41.2 1.14-1.57-1.46-2-1.78-1.69-3.76-.41-1.99-3.27 2.29-3.48.21-3.05-1.56-3.89z"/><path d="m865.03 314.78l.83 2.95 1.46.95 1.05-1.37-1.67-2.31z"/><path d="m829.08 292.87l-2.61.73-1.88 2.32 1.57 3.05 2.29.21 2.61-2.32.63-3.05z"/><path d="m859.28 268.96l-3.87 2.96-.21 5.68 3.35 3.9.83-.74z"/><path d="m876.51 234.1l-1.78 1.79.73 2.53 1.57.1 1.05 5.48 1.25 1.37 2.2-2 .94-3.59-2.72-3.89z"/><path d="m886.13 230.52l-3.03 2.84-.11 3.27.74.95 4.07-3.47-.32-3.48z"/><path d="m881.94 223.77l-5.33 6.12.94 1.47 2.61.32 4.91-3.79 3.45-.64 3.14 3.69 2.4-.85.94-3.58 4.49-.11 4.4-5.27-2.3-8.75-1.05-4.63 2.3-1.9-5.22-7.89-1.36.11-2.82 3.16v2.63l1.26 1.48.41 6.95-3.23 4.01-1.88-1.16-1.47 3.27-.31 3.05 1.14 1.79-.73 1.37-2.4-2h-1.67l-1.47.84z"/><path d="m890.94 176.17l-1.67 1.47.84 3.16 1.46 1.48-.11 4.84-1.88.74-1.46 3.27 4.28 5.89 2.82-.95.53-1.48-3.03-2.73 1.88-2.43 1.99.32 1.56 1.68.11-3.47 4.28-3.48 2.41-.64-1.99-3.36-.94-1.48-1.56 1.05-1.36 1.68-2.93-.63-3.02-2z"/><path d="m906.71 172.9l-2.93 4.11.21 2 1.46-.63 3.44-4.32z"/><path d="m910.58 166.9l-1.05 2.84.11 1.89 1.78-1.16 1.67-3.37v-1.25z"/><path d="m916.74 141.82l-1.36 1.69.11 2.63 1.26-.11 2.09-3.68z"/><path d="m914.24 148.25v4.64l1.46.52 1.05-1.68v-3.57z"/><path d="m871.5 131.5l-.1 6.75 8.46 13.07 3.02 11.37 5.34 10.11 2.08.73 1.79-1.47.83-2.43-7.63-8.32.21-4.32 1.67-.73.41-2.53-14.94-21.17z"/><path d="m930.43 110.54l-2.08.21 1.25 1.79 2.61 1.8.74-.85z"/><path d="m934.5 111.81l.32 1.79 3.23.96.32-1.27z"/><path d="m952.26 118.69l1.36 2.45 2.28-.16.45-1.68z"/><path d="m975.17 122.52l1.83 3.36 1.36-1.53v-2.29z"/><path d="m990.8 111.8l-2.58 3.37.6 1.53 3.19-1.99.31-1.99z"/><path d="m1003.7 101.25l-2.28 2.75 2.43.92z"/><path d="m1006.89 96.66l-1.52 2.45.15 2.44 2.12-.91z"/><path d="m961.82 39.439l-2.58 1.681-.61 2.15 1.21 1.373 2.73-.918 2.74.918 1.51.457-.15-5.05z"/><path d="m74.31 55.796l3.78 7.07 2.43-.55v-2.446z"/><path d="m84.5 1.093l-4.25 3.86 1.27 2.854 2.28-1.575 1.28 1.433 4.24-1.564-.15-2.427z"/><path d="m52.991 118.02l-.186 3.29 2.365-.54v-1.47z"/><path d="m49.36 119.49l-4.718 2.38.728 2.56 1.82-1.47 3.626-1.65z"/><path d="m29.747 122.59l-3.268-.73-.546 1.46.36 2.75z"/><path d="m22.84 122.42l-3.093-1.28-1.092 2.01 1.999 2.01z"/><path d="m12.13 119.49l-1.453-2.02-1.454.55v2.75l1.64 1.09z"/><path d="m.328 109.23h1.267l.548-1.46-1.815-1.28z"/><path d="m679.29 543.75l-.16 4.69 6.49 1.51 1.49-3.86-2.32.66-3 .67-.83-3.52z"/><path d="m668.64 433.72l-1.67 2.17.33 2.35 3.5-2.85z"/><path d="m662.48 437.41l-2.49.17-.16 2.17 1.66.34 2.49-1.17z"/><path d="m646 405.21l-2.32 5.54-3.99 7.04-6.99.5-2.99 3.52.5 10.74-4.33 5.03.51 8.55 3.66 4.19 4.33-.51 4.32-3.19-.99-5.03 9.98-17.28-2-2.17 2-4.19 2.16.67.67-1.67-2-8.56-1.17-3.52z"/><path d="m630.04 403.37l.5 1.67 2.16.34.83-2.18z"/><path d="m633.19 406.72l.84 1.85h1.33l.67-2.35z"/><path d="m656.99 389.27l-.67 1.35 1.82 1.51 1.34-1.51z"/><path d="m666.31 379.21l-2 1.35 1.49 2.35h2z"/><path d="m667.14 385.08l-1.34 1.51 1 1.51 1.82.34.17-3.19z"/><path d="m716.05 348.18l.33 2.86 1.83.66.32-2.51z"/><path d="m718.38 354.22l-.16 3.52 1.33.66 1.17-2.35z"/><path d="m718.72 361.09l-1.17 1.17 1.33 1.17 1.66-1.17z"/><path d="m405.95 234.75l-1.48 1.5 2.66 1.5.3-2.09z"/><path d="m413.96 233.86l-1.78 1.19 1.49 1.19 2.37-.6z"/><path d="m415.14 238.04l-.88 2.4 1.18 1.5 1.48-1.2z"/><path d="m422.26 242.82l-.59 1.5.88.9 2.37-1.5z"/><path d="m444.79 255.96l-1.18 1.5 1.18 1.5 1.78-.9z"/><path d="m452.92 274.89l-1.91 1.11.88.89z"/><path d="m446.28 275.1l-2.37.6 1.18 1.79h1.78z"/><path d="m440.64 273.31l-1.49 1.49 2.08 1.8 1.18-2.69z"/><path d="m422.26 315.14l-2.08 1.19 1.49 1.19 1.78-.89z"/><path d="m427.36 317.54l-1.35 1.21.96 1.78 2.31-1.04z"/><path d="m424.4 320.92l-1.74 1.04 1.87 2.51 1.48-.78z"/><path d="m9.65 269.39l-.153 2.55 2.229 1.5 1.334-1.19z"/><path d="m15.431 273.14l-2.077 1.5 1.786 2.24 2.072-1.79z"/><path d="m19.594 276.73l-1.781 2.39.59 1.5 2.525-1.19z"/><path d="m22.556 281.36l-1.038 5.98 1.038 2.25 3.41-1.05 1.781-3-3.717-3.44z"/><path d="m28.501 437.75l-2.076-.15-.155 1.95 1.63 1.05 1.934-1.2z"/><path d="m35.626 439.85l-2.972 1.95 2.229 2.69 1.934-.45 1.039-1.35z"/><path d="m301 307.3l-1.64.68.58 1.45 1.92-1.26-.38-.39z"/><path d="m303.7 308.95l-.97 2.05 1.16 1.55 1.45-1.26z"/><path d="m306.98 314.58l-1.16 1.07.86 1.75 1.64-.48z"/><path d="m306.88 318.96l-.78 1.65 1.26 1.35 1.64-.87z"/><path d="m306.98 323.13l-1.35.97 1.06 1.95 1.74-.97z"/><path d="m305.34 326.91l-1.26 1.26.48.78h1.54l.48-1.27z"/><path d="m307.16 330.71l-1.16 1.07-1.25.2v1.55l2.31 2.13.96-1.55.58-1.75-.19-1.45z"/><path d="m294.93 304.77l-2.88-.97-2.32 1.45 1.16 1.36 3.94.58z"/><path d="m272.88 298.56l-1.83 1.87 2.09.86.31 2.61-4.63.4.47 2.52 1.35.1.77-1.16 5.4.17.98 1.87 1.24-1.46 3.64-.99 3.2.68.37-1.93-5.77-3.78-3.73-1.4z"/><path d="m286.26 304.1l-5.79-3.79-2.73-.93-.92 6.56.97 1.85 1.25-1.45 3.66-.98 3.18.68z"/><path d="m272.87 298.56l3.76.4-.45 4.61-.37 2.43-4.38-.24-.78 1.17-1.34-.1-.49-2.53 4.63-.38-.29-2.62-2.12-.88z"/><path d="m335.26 553.11l-2.88-.32-2.86 1.92 2.08 2.26z"/><path d="m338.12 551.66l-.95 3.05-2.71 2.41.16.8 4.63-1.77 1.91-2.41z"/><path d="m442.8 125.73l-2.14-1.21-2.88 1.82-2.49 2.3.07 1.28 3.21.4-.19 2.3-1.14 1.15.27.74 3.22.21v3.72l4.62.8 2.74 1.56 3.08.13 5.29-2.64 4.09-5.4.07-3.65-2.49-2.1-2.07-1.76-.94.68-1.41 1.82-1.61-.2-1.6-1.76-2.08.19-3.02 2.51-1.81 1.95-1.01-.87-.06-2.17 1-.67z"/><path d="m532.31 56.46l-1.81-1.812-4 1.942h-7.34l-1.16 4.29 4.12 3.64 1.8-.26 2.58-4.418 2.19 1.568-1.55 3.11-.78 4.55 1.8 2.854 3.87-6.494 5.03-6.11-1.94-1.687z"/><path d="m534.49 48.667l-3.22 2.985 1.93 2.985h3.48l1.42 1.943 4.25 2.212 4.89-2.854 3.36-2.858-1.16-2.335-3.35-1.947-2.45 2.212-1.67-2.08-1.29.13-1.68 3.642-2.44-2.472-.27-1.683z"/><path d="m541.83 62.05l-2.57 2.34-2.19 1.68 1.03 1.819 2.06.641 3.36-1.559 1.55-1.951-1.42-2.336z"/><path d="m597.39 39.876l1.88.755-1.32 2.274v3.225l-2.82 1.706h-3l-1.7-2.088.19-2.275 1.32-1.705h2.63z"/><path d="m604.54 37.788v2.272l1.88 1.522 2.63-.182 2.27-2.09v-1.522h-2.07l-1.69.572-1.33-1.523z"/><path d="m615.27 37.985l1.32 2.842 2.64.183 1.88-.75-.94-2.658-2.45-.572z"/><path d="m625.99 34.19l-2.06-.382-1.88 1.902.94 1.706.57 2.654 2.44-1.89.57-2.09z"/><path d="m637.47 54.3l-.57 2.655-4.33 3.794-9.22 2.089-7.53 12.522-1.32 3.605 7.53 1.905 1.12-4.55 2.26-7.02 5.84-3.04 4.9-3.79 3.57-1.524h1.88v-5.117z"/><path d="m613.2 81.994l5.08.566 1.69 5.88 4.33 4.55-1.51 3.04h-2.63l-2.45-2.84-5.45-.19-2.27-3.04v-2.08l3.39-.95z"/><path d="m692.61 17.308l-2.45-1.519h-2.82l-.56 1.705-3.01 1.706-2.26.755-.37 2.275 5.26.381z"/><path d="m698.44 17.877l-1.33 2.843-2.63-.186-4.14 3.04-1.13 3.794h2.64l1.51-2.471 3.57 2.657 3.39-1.524 2.44-2.085-.94-3.225-1.32-2.274z"/><path d="m703.9 19.965l1.32 5.314 2.07 4.931 2.26-3.98 4.33-.951v-2.842l-2.82-2.089z"/><path d="m807.15 11.459l2.94 2.471 2.09-.86.61-3.47-4.28-2.963-2.82 1.859-6.87.623v3.094l-7.23.121v5.062l8.46 6.298 2.21-1.604-.5-4.453 5.4-1.356-1.1-2.1-1.96-1.979z"/><path d="m815 8.496l1.95 3.706 7.61-.863 2.09-2.723-.49-2.351-2.09-.864-1.96 1.487-5.64 1.236z"/><path d="m814.51 22.95l-3.81-.984-2.19 2.351-.99 3.215 5.15-.492 3.92-1.98z"/><path d="m913.07 1.574l-3.19-.984-3.68 1.356-1.83 2.723 2.33 3.094 6.13-2.723 1.22-1.355z"/><path d="m742.43 334.28l.28 2.98.27 2.16-1.61.28.81 4.86 2.42 1.36 3.75-2.17-1.07-5.12.27-1.9-3.49-3.23z"/><path d="m240.07 289.31v1.39l5.82.11 2.74-1.6.43 1.17 5.7 1.39 5.07 4.58-1.16 1.6.21 1.82 4.23 1.06 4.23-1.92 1.9-1.91-2.74-1.39-14.16-8.31-4.96-.53z"/><path d="m260.57 280.8l-1.37-.43-.11 2.66 1.69 1.7 1.16-1.7z"/><path d="m263.32 284.95l-1.9 1.06 1.79 2.56.95-1.28z"/><path d="m269.45 286.86l-2.01-.11.2 1.28 1.48 2.14 1.27-1.39z"/><path d="m268.5 284.32l-3.28-1.39-.64-3.3 1.27-.54 1.27 2.56 1.27.96z"/><path d="m265.33 277.6l-1.7-.42-.31-2.14-1.8-.63 1.16-1.17 2.11.74 1.59.97z"/><path d="m259.83 303.17l-3.8.96v1.06l2.22 1.28h2.32l1.48-1.71z"/><path d="m907.88 368.5l-4.56.51-2.93 2.14 1.21 2.45 4.97.92v.92l-3.14 2.55 1.52 5.3 1.52.1 1.31-5.21h2.42l1.02 5.1 11.84 9.8.3 7.65 4.05 4.38 1.82-.09.41-27.03-6.88-4.79-6.48 4.38-2.33 1.44-3.84-2.45-.1-7.76z"/><path d="m100.47 46.546l-9.16 2.176 1.89 10.328 9.97 2.727.54 2.176-14.83 4.627-8.36 13.86 2.96 14.69 4.85 3.25 3.78-3.53 1.09 2.18-4.59 5.43-17.806 8.16-11.334 2.72-.27 4.08 26.16-7.61 10.79-3 9.97-12.23 11.06-7.34-5.66 9.52 6.21.82 10.52-4.63 1.89 7.61 7.28 1.63 7.55 7.34.54 5.43-1.08 1.36 1.34 5.16h1.89l.28-8.71h2.15l.53 21.48 5.4-4.63-3.78-22.29h-5.66l-6.21-7.88 30.48-51.668-30.2-23.652-33.72 6.53-1.34 10.332 7.28 4.348-2.7 7.08z"/><path d="m211.79 367.23l-.68 3.01-1.25 1.26.86 1.56 2.22-.88 1.06-1.85-.68-1.94z"/><path d="m221.36 36.705l.24 4.395-8.72 9.04 2.19 7.33 6.29-1.707 3.64-5.383 9.2-3.419 7.51-.491-5.81-6.35-2.91 2.19-2.18-.728-1.22-2.69-2.66-2.692z"/><path d="m232.75 23.76l-1.93 3.42 9.45 3.424 3.39-5.128 1.45 3.423h2.43l4.6-5.129-5.58-1.465-2.18-1.705-2.91 2.93z"/><path d="m249.23 30.604l-7.51 3.171v2.435l9.7 3.666-2.19 2.434 1.45 3.18 6.06-2.694h5.09l2.43 3.903 4.12-4.155-.98-3.914-3.38 1.224-.48-4.887 1.69-2.927h-1.69l-2.67 1.702-1.21.973.73 3.425-1.94 1.463-2.9-.243-.74-4.393z"/><path d="m259.16 23.03l-.73 2.435 4.6 2.198 3.39-1.957-.24-1.466z"/><path d="m262.79 18.872l-3.39 1.228.24 1.702 7.51-.492-.24-1.705z"/><path d="m279.03 23.03l-.48 1.703-1.21 1.705v2.439l4.6-.737 4.84 4.16h1.69v-4.16l-4.84-5.375z"/><path d="m291.39 27.914l1.94 2.196-1.7 2.93 1.21 3.17 5.34-2.93v-2.19l-3.15-3.668z"/><path d="m298.42 22.294l.24 3.906h6.54l1.7 1.463-.24 1.706-5.82.731 4.12 5.621 5.58.973 7.75-3.424-11.15-16.858-3.39 2.198.24 2.93-3.88-1.47z"/><path d="m241.96 49.903l-9.2 2.437-5.33 4.648.48 5.132 9.69 2.93-2.18 4.884-7.03-4.394-1.93 3.66 4.6 3.17-.24 5.13 7.02 1.96 8.48-.495 1.46-2.685 6.29 7.08 4.36-1.465.73-4.885 3.15 2.2.48-4.89-3.88-2.44.24-15.38-3.38-2.694-3.63 4.888z"/><path d="m271.52 60.65l-3.14-1.46-1.7 2.19 3.39 5.383.24 5.128 7.27-4.391v-6.36l2.66-2.69-2.66-1.95h-4.36z"/><path d="m287.03 58.45l-5.09 4.16 1.21 5.13h3.15l1.45-2.69 2.19 2.19 2.18-.24 5.82-4.88z"/><path d="m286.54 50.38l-1.21 2.442 5.33 1.957 1.45-2.198z"/><path d="m283.39 41.1l-5.33.733-3.15 2.931 5.82.236-1.7 4.4 1.21 1.96 1.7-.24 4.12-6.597z"/><path d="m292.6 39.4l-2.9.97.48 3.9 4.84 3.17.24 2.441-1.45 1.469.73 4.88 18.65 6.1 5.1 1.71 5.09-4.4-6.06-4.883-5.57 1.463-7.75-.73-2.9-2.93-.74-8.06-4.84-2.441z"/><path d="m307.86 64.806l-5.33-.496-6.3 2.442-3.39 4.638.98 12.7 10.41.5 9.94 4.88 7.02 8.06 5.34-.24-1.46 7.57-4.84 8.06-5.33 2.43-3.88-.73-1.94-1.7-2.9 3.9 1.21 3.9 4.12.24 5.09-2.44 4.36 11.24 10.91 7.09 7.51-9.52-6.3-10.26 3.64-4.15 5.09 8.55 9.21-8.06-1.7-3.67-6.29 1.96-4.36-11.97 4.12-6.83-8.24-8.8-4.6 3.18-4.36-9.53-9.21 1.226-2.42-11.476-7.51 5.12-.73 6.356h-4.12l.48-5.616z"/><path d="m318.77 69.2l-1.94 1.96 1.7 2.688 8 .973-5.1-5.381z"/><path d="m311.02 41.593v2.198l-5.33 1.229 1.45 2.43 6.05 2.442 6.79.732 4.84 3.426 4.84-2.69-3.39-3.425h4.36l2.67-2.935 6.55-.97v-1.464l-3.64-2.436.48-2.692 10.17 1.702 15.03-5.86-5.57-1.703 1.45-1.957h11.63l1.93-1.957-23.51-8.31-5.57-1.957-6.05 4.395-6.79-5.621-3.64-.239-.73 4.647-4.6-4.155-5.33 1.707.97 2.688 8 1.706-.48 3.903 4.36 2.693 10.66-2.693.24 3.663-8.72 4.16-5.33-4.16-4.84.492 4.84 6.845-2.43 1.225-3.64-3.171-2.66 1.709 2.42 4.632h4.12l-.97 4.398-3.39-.494-4.36-4.646z"/><path d="m289.42 108.83l-4.62 5.81-.28 6.41 4.04-2.33h4.91l3.46 3.2 3.18-2.62z"/><path d="m345.72 184.49l-11.56 11.06 1.16 2.63 14.14 5.24 2.03-3.49-1.16-5.82-4.63.58-2.6-2.91 4.33-4.36z"/><path d="m171.63 50.668l2.17 3.291 1.1 4.391 5.44 1.371 3.81-4.111 3.27 1.65 9.26.82 6.53-2.74 1.09 9.05h3.82v-3.84l3.81.276 9.53 11.254 6.26 3.835-3.26 5.215 1.36 1.37 12.23 2.468.27 5.492 3.27.54.82-8.23 5.17-1.37 3.81 5.77 8.17 3.83 4.08.82 2.73-3.29.27-5.21 4.89-3.02 1.63 4.39-4.36 7.69.55 3.84 2.45-3.84 4.89-4.394.28-5.766-2.73-4.39.82-3.57 6.54-3.288 2.99 2.198.55 19.21 4.62-4.11 2.72 1.65-3.81 6.58 4.9 1.1 7.08-10.98 5.99 6.31-2.45 11.25-5.99 3.29-5.72-2.74-10.33 2.19 1.09 3.57-2.72 4.39-8.44 1.93-9.53 7.41-8.43 11.25-1.1 3.57 5.72 2.19 2.17 5.49 7.89 7.96 12.53 5.49-2.72 12.62-.28 3.56 3.27 2.2 4.36-5.76.55-10.98 6.8-.27 3.27-6.31.55-9.6 8.71-17.01 10.88 3.83 5.72 7.96-2.45 7.96 4.36 2.48 10.61-7.14 3 19.48 9.8 11.8.27 6.03-10.88 2.75-5.17 5.49-10.89-2.47-5.44-.28-9.53 7.42 5.72-1.37 7.08-1.37 1.37 1.65-1.91 6.04.28 5.49 3.26 2.19 3.27-.82 1.64-2.47h2.18l-3.54 6.59-6.81.27-3 4.39h-3.81l-1.09-3.29 5.44-5.49-6.54 2.2-.29-9.32-1.88-1.1-5.72 2.47-.54 4.67h-13.07l-11.16 7.69-14.97 4.94-1.63-2.2 7.54-11.26-4.28-4.12-2.73-5.23-5.54-4.23-5.94-.49-10.66-7.47-77.27-12.7-1.28-5.24-7.08-6.58v-5.49l1.09-4.94-.54-2.75-2.73-2.74-.54-4.4 7.08-4.94-4.36-23.6-5.99-.27-5.44-7.14z"/><path d="m161.29 170.59l-1.09 4.4-3.82-2.47h-1.9l-1.09 4.67-13.34 29.91 3.54 26.07 4.36 2.19.82 7.14h8.98l8.71 6.59 17.15 1.65 1.9 8.78 2.72 1.92 3.81-3.84 3 1.37 2.72 12.62 4.62 3.02 3.81-7.14 11.71-8.51 7.62 3.56 6.53.55.27-4.11 13.61.27 2.72 3.02.55 6.86-1.63 3.83 1.9 6.59h4.09l4.08-6.31-1.62-3.02-1.63-6.58 2.45-7.42 11.15-9.6 8.44-2.47-1.09-7.96 11.7-12.62 11.71-1.93-1.91-6.57 11.44-6.58v-8.78l-1.1-.55-4.08 1.37-.55 5.38-13.58.16-10.65 7.08-16.71 5.46-2.66-3.27 7.58-11.48-3.75-3.57-2.55-4.86-5.27-4.24-5.74-.48-10.84-7.4z"/><path d="m144.97 137.87l-1.85 3.56.64 2.53 1.21.75-.28 1.03-1.3.37.37 3.75 1.4 1.41 1.11-1.21-1.39-3.65.83-2.91 2.04-2.73-1.49-2.52z"/><path d="m151.12 159.23l-1.68.66 3.07 3.56.75 4.22 3.07 3.28 2.6-.47v-4.31l-3.16-1.96z"/><path d="m211.69 316.21l6.48 4.75 6.54-8.13-1.12-1.68-2.23-.08v-4.75l-1.67-1.02-5.06 1.51 1.94 4.46z"/><path d="m225.54 313.21l10.1-.38 2.99 3.57-1.87-.43-3.59.15-4.7 4.42-2.01 4.47-1.33-.7-.01-4.9-2.9-1.94z"/><path d="m219.09 321.4l5.14 2.56-.08-4.05-2.63-1.61z"/><path d="m236.67 316.86l2.4.48.07 4.91-2.78 7.96-7.51-.75-1.67-3.84 2.23-4.65 4.23-3.94z"/><path d="m236.28 330.93l1.52 2.97 1.23 1.64-1.66 4.93-3.17-2.23-5.18-4.74v-3.14z"/><path d="m239.79 335.99l-1.6 4.99 5.27 1.36 3.27.65.55-3.86 3.51-1.77 3.12 1.6 1.22 1.96 1.49-.17 1.17-3.56-3.89-1.6-2.95-1.61-2.95 2.01-3.51 1.77-3.59-1.44z"/><path d="m276 325.24l-2.25-.23-14.88 12.28-1.57 4.32-2.04.23.91 9.55-5.19 12.73 5.64 4.78 7.22.46 4.96 7.28 7.22.23-.23 5.46h2.7l2.92-10.01-2.71-3.41.68-6.36 5.64-.46-.68-14.78-12.63-4.09-2.93-7.96z"/><path d="m272.43 331.96l.48 2.83 3.55 1.12.81-5.21 3.75-3.88 3.75 4.39 8.62 2.35 7.3-1.53 4.97 6.14 3.75 2.35-4.11 6.26 1.38 4.75-2.35 2.91-2.44 2.04-5.27-2.66-1.22 1.23v3.78l3.86 1.84-2.84 3.07-2.84 3.07-3.75-.3-3.77-4.15-.8-15.59-12.87-4.39-2.34-6.86z"/><path d="m310.23 340.93l7.89 7.15-3.13 3.63-.26 2.16 4.12 4.25-.09 4.09-7.17 2.73-4.3-5.8.92-6.98-1.84-5.19z"/><path d="m319.06 348.6l2.23 2.04 3.45-2.14 3.15.1-.4 1.22-1.32 2.76-.21 6.85-6.29 2.56.31-4.39-4.05-3.79.2-1.94z"/><path d="m328.9 349.32l6.39 3.99-3.34 6.65-1.22 1.53-3.55-2.05.1-7.16z"/><path d="m250.29 364.68l-5.17 3.22-.37 4.76-1.04 1.57 3.26 3.12-1.41 1.55.33 3.93 5.82 1.39 8.82-10.44-.02-3.64-4.23-.28z"/><path d="m244.64 379.63l-2.12 2.14.14 3.42 18.51 33.77 19.23 12.4 2.97-4.99.71-10.97-1.55-6.83-5.24-8.83-3.11.99-1.41 1.56-6.22-7.13 1.55-8.4 7.22-4.7-.57-4.42-7.35-.29-3.81-6.4-2.12-.71.14 3.84-9.46 11.26-7.07-1.71z"/><path d="m281.45 405.07l8.99-3.92 2.97.28 1.98 8.27 13.71 4.56 2.26 6.98 5.65.71 2.4 5.98-1.69 5.42-9.19.71-3.39 8.69-7.21-.14-2.27-.43-4.16 4.05-2.05-.2-7.07-16.39 1.95-2.93.69-11.59-1.75-6.9z"/><path d="m317.56 434.29l2.41 2.62-.29 5.56 6.93-.43 5.24 6.7-.43 5.98-3.39 5.13-6.92.28-.29-2.85 1.98-4.7-6.79-4.28h-5.65l-4.24-4.56 3.08-8.81z"/><path d="m326.96 469.73l-2.24 2.4.93 12.88 7.04 2.04 8.95-8.97z"/><path d="m332.55 454.72l2.12 1.99-8.06 11.97-2.83 3.14.99 13.68 6.21 7.56-5.22 9.12-3.96 1.7h-4.52l1.27 7.12-7.07 2.43 1.69 5.98-4.24 13.53 5.24 4.28-2.83 6.97-4.81 7.56 2.54 5.27-6.21 1-5.1-6.27-.85-19.52-7.91-33.15 2.39-11.59-5.09-14.81 3.39-19.24 3.11-3.7-.76-2.81 4-3.66 8.91.62 4.99 5.32 5.76.1 5.9 3.61-1.74 4.07.41 4.11 8.36-.4z"/><path d="m310.22 559.58l-4.67 10.26 8.06.85.14-6.84z"/><path d="m314.46 564.71l.29 6.26 4.8-.42 4.1-2.72-6.93-1.42z"/><path d="m308.64 557.97l-3.51 3.88-.43 4.56-6.78-3.85-7.22-10.39-2.12-3.71 2.98-3.85-.29-4.84-3.39-1.42-2.68-1.99.56-2.72 3.53-.99.71-15.67-5.5-3.14-3.6-81.55.93-1.62 7.04 16.23 2.25.05.73 2.59-2.99 3.63-3.45 19.54 4.9 15.04-2.26 11.4 7.97 33.5.85 19.59 5.71 6.62z"/><path d="m285.35 516.98l-1.41 2.13.71 3.71 1.41.14.71-4.7z"/><path d="m342.13 477.3l6.83-13.14.25-11.05 12.75-8.22h7.13l5.61-9.5 1.01-18.24-2.29-4.87 13.51-12.34.51-13.61-18.35-8.99-22.16-6.93-10.45-1.03 2.81-5.9-.76-8.99-2.29-.75-3.38 6.71-1.77 2.22-4.54-2.01-15.29 5.39-5.09-6.42.82-6.7-4.81 4.9-5.31-2.87-.54.76.01 2.32 4.58 2.46-6.87 7.25-4.34-.04-4.39-4.47-4.98.15-.61 5.31 2.85 3.47-3.36 10.79-3.94.31-6.26 3.96-1.53 7.77 5.43 5.82 1-1.13 3.81-1.03 3.26 5.49 9.32-4 3.62.21 2.49 8.82 13.3 4.22 2.29 7.04 5.66.68 2.7 6.73-1.82 5.98 2.38 3.12-.35 4.66 6.38-.6 5.85 7.39-.46 5.2 3.46 2.93-8.3 12.58z"/><path d="m222.27 306.24l-.05 3.99h.91l3.13-5.84h-2.12z"/><path d="m892.62 77.2l1.92 6.65 3.85 1.107 3.85-6.09-2.2-4.157.82-3.6h5.77l-1.38 2.771.55 9.969-8.24 20.49.82 4.43-.27 7.48 15.37 22.43 3.02.83.27-18.27 3.02-2.77-3.3-7.19 2.74-3.06-6.04-8.02-3.3.27-1.1-13.28 8.52-2.222.54-3.878 4.4-1.108 2.47 2.218 3.01-12.18 5.22-8.86 4.12-2.215 3.57.275v-4.16l-5.77-1.101-7.97-6.649 3.85-4.427-3.3-7.479 2.74-2.766 3.3 4.432 8.24 3.05 9.06.828 1.11-3.868-4.67-4.704 5.21-7.196-11.81-4.15-3.02 6.09-3.84-4.99-21.7-7.478-20.6 3.597-3.01 1.662v1.662l4.39 2.219-.55 5.258-7.96-3.322-17.58 6.921-3.01-6.359h-12.09l-5.49 5.81-19.5-4.426-17.85 3.596-2.19 5.534 2.74.831-.27 4.155-17.3 1.935 1.1 5.535-15.93-2.77 3.84-7.19-16.2-.834 1.37 7.479-5.21 2.495-4.39-4.16-17.85 3.05-6.86 6.367-.27 3.873-4.4.271-.54-4.431 14.01-12.18v-8.308l-9.06-2.493-11.82 3.871-4.94-4.99h-2.19l-2.75 5.537 2.2 2.493-15.66 8.583-13.45 10.247-8.24 11.35v4.7l8.78 3.6-4.39 3.32-9.33-3.32-3.85 3.32-5.77-6.65-1.1 2.495 6.31 19.935 1.65.56 4.4-2.22 2.19 1.66v3.6l-4.12-1.67-2.47 1.94 1.66 3.6-1.38 9.41-8.52.83-.54-3.05 4.94-3.05 1.1-8.31-5.5-7.19-1.92-12.46-8.78-1.39-.82 4.43 1.65 2.22-3.58 3.05 1.38 8.31 5.21 2.22 1.11 6.09-5.23-3.32-13.45-2.5-1.65 4.43-10.71 3.87-1.65-2.76-14.01 7.75-.27 5.26-5.5.83 1.65-3.87v-3.87l-5.5-1.94-3.57 1.39 3.02 5.82 2.19 3.87v3.05l-4.12-.83-.82-.83-4.12 4.43 2.2 3.87-9.33-.28 3.01 3.88-.82 1.67h-4.94l-3.57-2.5-.82-6.92-5.77-2.22v-2.76l12.09 2.49 6.59.56 2.74-4.16-2.47-4.43-17.57-6.92-6.07 1.51-2.07 1.78.64 4.1 2.58.45-.6 6.45 7.95 18.7-5.74 9.12-.4 2.05 2.92 2.06-2.63 1.74-1.75.03.33 8.04 2.41 3.42.03 3.32 3.1.29 4.73 1.8 5 6.89.06 1.82-1.63 2.78 3.74-.2 3.64 1.05 4.91 6.96 12.11 1.11-.52 8.28-4.18 3.58.87 1.4-4.12 4.43-1.1 4.15 2.47 3.6 7.97 2.77 3.3-1.94 21.15 8.03.82-2.22-4.4-4.16v-5.26l-2.74-.83.55-4.43 4.39-5.26-7.88-5.9.55-8.21 8.42-5.55 9.89.56 1.65 3.05 10.17.56 7.42-4.16-3.85-4.15.82-7.75 19.22-9.42 14.79 6.67 4.94-4.42 14.55 13.84 10.99-1.11 3.84 3.87 10.44 1.11 6.86-9.42 8.79 3.89 4.67.83 4.66-4.16-4.12-2.76 3.58-5.54 10.16 3.33 2.2 4.43 4.39.27 2.74-1.94 7.42-.27.82 1.94 8.51.55 5.78-6.09 11.81 1.39 3.57-1.39 1.09-6.65-3.57-8.02 3.57-3.05h11.26l10.71 12.74 13.73 7.75h4.12l.54-3.33 4.94-3.05.55 18-4.39.27v4.43l2.47 3.05-.46 3.96 1.82.76 1.11-2.77 1.65.56 1.09 1.1 4.94-1.1 4.94-14.4.54-18-6.31-14.4-7.97-9.69-3.85.56v3.05l-9.33-3.6 3.57-7.75 3.02-20.49 12.63-3.87 6.05-3.87h6.59l-1.65 2.22 1.65 2.77 5.77-6.09 3.3.27-.55-3.6-5.22-1.1 3.57-13.01z"/><path d="m731.35 183.42l-3.78 9.51-5.21-.27-5.5 12.03 4.67 5.95-9.62 13.29-4.94-.83-3.3 4.15.82 2.49 3.85.28 1.92 4.43 3.85.83 11.81 15.23v7.75l5.77 3.6 6.32-1.11 7.96 4.71 9.62 2.76 4.67-.56 5.22-.55 10.98-7.2 3.58.56 1.36 3.25 3.03.9 4.12 6.09-2.74 6.09 1.65 4.16 4.66 1.66.82 4.99 5.5.55.82-2.49 7.97-4.15 4.94.27 5.77 6.36 3.84-1.66 2.47.28 1.11 3.05 1.92.27 2.74-3.87 10.99-4.16 9.89-11.9 3.3-11.35-.28-7.48-4.12-.83 2.47-2.77-.54-4.43-10.44-10.52v-5.25l3.02-3.88 3.01-1.38.28-3.05h-7.7l-1.37 4.15-3.58-.83-4.39-4.7 2.74-7.2 3.85-4.15 3.57.27-.54 6.37 1.92 1.66 4.67-4.7 1.65-.28-.55-3.6 4.39-5.25 3.3.27 1.93-6.09 2.25-1.19.23-3.8-2.19-2.29-.18-6 4.2-.27-.27-15.45-2.95 1.77-1.1 3.96-4.93-.01-14.29-8.04-10.31-12.44-10.47-.11-2.67 2.32 3.39 7.76-1.18 7.28-4.22 1.75-2.37-.18-.18 7.2 2.47.56 4.4-1.93 5.77 2.76v2.77l-4.12.27-3.3 7.2-3.02.27-10.71 14.12-11.25 4.98-7.7.56-5.21-3.6-7.42 3.88-7.97-2.49-1.92-5.26-13.45-.83-7.14-11.62h-3.02l-2.42-5.39z"/><path d="m735.07 183.53l6.36-8.44 7.64 3.53 5.19 1.39 6.36-5.84-4.32-3.18 2.84-4.02 8.48 3 2.94 4.82 5.31.14 2.78-2.06 5.72-.23 1.24 2.12 9.5.48 6.01-6.14 8.32.88-.49 8.35 3.64.83 4.47-2.03 4.73 2.34-.1 1.18-3.44.1-3.57 7.5-2.78.27-10.79 14.12-11.03 4.87-6.89.53-5.73-3.69-7.32 3.91-7.22-2.24-2.04-5.24-13.66-.96-6.99-11.86-3.4-.22z"/><path d="m849.25 209.88l2.01.84.61 7.04 3.99.23 3.76-4.41-1.3-1.15.15-4.73 3.45-4.17-1.76-3.18 1.15-1.31.64-3.28-2-.91-1.71.87-2.11 6.41-3.41-.3-3.94 4.66z"/><path d="m860.24 214.17l6.75 5.52 1.15 5.33-.23 2.87-3.3 3.71-2.84.16-3.22-6.97-1.23-3.32 1.3-1.01-.3-1.39-1.61-.72z"/><path d="m628.94 203.7l4.48-1.91 5.01-.18.35 7.66h-2.93l-2.24 3.65 2.93 4.86 4.32 2.44.39 2.79 1.58-.53 1.47-1.73 2.41.52 1.22 2.44h3.1v-3.13l-1.9-5.56-.87-4.52 5.52-2.44 7.42 1.22 4.66 4.69 10.52-1.04 5.87 8.34 6.9.35 1.9-3.13 2.41-.52.35-3.48 3.62-.17 1.9 2.26 1.9-4.52 16.39 2.27 2.75-3.65-4.66-5.74 6.21-13.56 5.01.35 3.45-8.35-6.9-.7-3.96-3.82-10.93 1.27-14.08-13.62-4.96 4.41-15.05-6.83-18.45 9.04-.52 6.43 4.32 5.04-8.42 4.75-10.91-.24-2.29-3.35-8.55-.47-8.11 5.21-.18 7.13z"/><path d="m647.7 224.44l-.68 2.88h-4.54v3.89l4.88 3.21-1.51 4.41v2.03l2.02.34 2.69-3.55 6.05-1.36 12.94 4.91.17 3.56 7.22.67 8.07-8.47-1.01-2.71-5.38-1.18-15.12-9.83-.68-3.55h-5.71l-2.53 4.74h-2.52z"/><path d="m686.02 236.98l3.37.18v-5.76l-3.19-1.86 5.37-6.78h2.19l2.19 2.55 5.71-2.2-7.9-2.71-.31-1.64-1.88.46-1.84 3.21-7.97-.26-5.85-8.28-10.27 1.02-4.89-4.86-6.78-1.15-4.92 2.01 2.85 9.49.04 3.19 2.07.04 2.55-4.85 6.78.09 1 3.72 14.52 9.65 5.62 1.29z"/><path d="m687.41 229.09l4.49-5.58h1.7l.59 1.25-2.08 1.51v1.24l1.37.99 6.56.39 2.15-.92.97.2.65 2.1 3.9.39 1.96 4.14-.59 1.24-.78.07-.77-1.58-1.69-.13-2.93.4-.2 2.75-2.93-.2.13-3.47-2.14-2.1-3.26 2.69.07 1.77-2.86.98h-1.7l.13-6.1z"/><path d="m694.64 215.28l-.33 2.77.27 1.7 9.51 3.19-8.35 3.37-.95-.79-1.81 1.16.09.64.96.43 5.86.16 2.97-.9 3.82-4.81 4.77.83 5.76-7.98-15.41-2.1-2.13 5.17-2.69-2.88z"/><path d="m669.85 245.72l1.74 13.62 4.32.95.41 2.45-3.11 2.59 5.79 4.67 11.23-4.04.9-4.79 7.07-4.42 2.71-10.23 2.02-2.18-2.1-3.65 6.84-4.23-.87-1.23-3.16.2-.29 2.91-4.24-.04-.07-3.89-1.37-1.63-2.29 2.09.06 1.92-3.46 1.31-6.39-.41-8.31 8.71z"/><path d="m679.69 270.64l2.85 4.22-.28 2.17-3.78 1.5-.27 3.54h4.33l1.48-1.22h8.24l7.43 6.54.95-3.14h5.54l.14-3.95-5.68-5.44 1.22-3 5.81-.4 7.84-16.35-4.33-3.4-1.62-5.72 10.54-.95-6.22-8.86-3.31-.89-1.36 1.64-1.01.07-6.22 3.95 2.03 3.41-2.29 2.45-2.85 10.49-7.02 4.49-.95 4.91z"/><path d="m731.99 339.71l5-2.45 2.97-10.76-.13-13.21 17.03-18.39v-4.36l3.51-1.37-.13-5.04-3.79-7.36 2.17-3.95 4.73 4.37 6.08.27v2.45l-1.89 2.04.4 1.1 3.25.13.67 3.67h.95l2.44-4.36 1.21-11.44 4.06-2.86.13-3.95-1.62-3.14-2.57-.13-10.05 6.65.63 4.28-7.06-.03-2.49-3.05-1.35.18.46 4.24-15.27-1.09-9.46-4.22-.51-5.2-6.3-3.91-.08-8.06-4.33-4.95-9.94.95 1.08 4.33 4.88 3.95-8.43 17.25-5.64.43-.93 2.07 5.55 5.14-.27 5.2-5.67-.09-.61 2.58 4.71-.21.13 2.05-3.38 1.77 2.16 4.09 4.19 1.36 2.57-1.9 1.21-3.4 1.49-.68 1.76 1.77-.54 4.37-1.21 2.04.27 3.54z"/><path d="m732.22 262.68l.5 4.67 8.83 4 14.15 1.05-.53-3.42-9.46-2.61-8.02-4.77z"/><path d="m758.67 268.71l1.7 2.32 5.72.05-.58-3.18z"/><path d="m758.86 274.21l-1.43 2.59 3.71 7.07.11 5.51.68 1.47 4.36.08 2.47-2.37 1.79 1.08.36 3.36 1.43-.9.09-4.28-1.2-.15-.75-3.64-3.04-.11-.76-2.02 1.86-2.48.03-1.23h-5.39z"/><path d="m795.87 329.47l-3.02-4.85 2.19-3.08-2.07-3.82-1.96-.37-.37-6.41-2.93-5.67-.85 1.35-1.96 3.33-2.45.37-1.22-1.61-.61-4.32-1.84-3.45-7.47-7.06 1.83-1.21.34-5.11 2.73-4.59 1.18-11.42 3.96-2.71.13-4.16 2.37.79 3.74 5.41-2.78 5.95 1.87 4.67 4.63 1.81.84 5.08 6.2.97-1.71 2.96-7.83 3.08-.85 5.05 5.75 7.4.24 3.94-1.34 1.36.12 1.23 4.28 6.29.12 6.53z"/><path d="m796.52 293.19l3.54 4.56v5.55l1.22.61 5.63-2.71 1.1.37 6.73 7.76-.25 5.31-2.19-.38-1.96-1.23-1.46.12-2.57 4.31.49 2.34 2.08 1.1-.12 2.59-1.47.75-5.01-3.46v-3.08l-2.08-.12-.85 1.35-.44 13.8 3.25 5.93 5.75 5.54-.25 1.61-3.06-.12-2.8-4.19h-2.94l-3.68-2.96-1.1-3.09 1.59-2.59.54-2.34 1.73-3.06-.08-7.04-4.22-6.1-.17-.74 1.36-1.38-.31-4.85-5.62-7.11.66-4.1z"/><path d="m799.45 342.38l2.19 4.93.5 6.4 2.93 4.56 7.1 4.31 2.69.25-.5-4.44-2.32-5.66-3.41-7.25-.29 1.27-4.11-.19-2.95-4.24z"/><path d="m807.94 324.9l4.47 4.78 8.31-6.17.74-9.73-4.3 2.97-2.23-1.25-3.03-.4-1.69-1.2-.82.05-2.22 3.64.36 1.68 2.25 1.26-.27 3.42z"/><path d="m802.46 284.95l-2.64 1.35-2.2 6.4 3.67 4.68-.61 5.17.61.26 6.11-2.97 8.2 9.17-.2 5.77 1.78.96 4.41-3.57-.36-2.84-12.71-12.08.12-1.85 1.58-1.1-1.1-3.08-5.26-.87z"/><path d="m812.94 330.35l1.3 2.04.24 2.34 3.42.37 4.16-5.54 3.91-1.1 2.08-5.67-.98-9.12-4.03-5.54-4.25-3.4-5.41-9.29 3.88-6.5-5.55-6.37-4.45-.2-4 2.15 1.19 5.15 5.33.94 1.44 3.97-1.88 1.23.12.98 12.51 12.25.49 3.6-.75 11.37z"/><path d="m605.74 220.69l3.58 4.67 4.46 2.06 2.74-.02 4.71-1.27 1.18-1.85-13.93-5.22z"/><path d="m621.33 226.96l5.24 6.84-1.54 1.81-3.71-.65-4.62-4.13.26-2.71z"/><path d="m623.17 224.58l-1.1 1.88 5.15 6.76 1.79-.58 2.95 3.1 1.28-5.43 3.2.52-.13-1.56-5.27-4.61-1 2.71z"/><path d="m621.25 235.77l-1.33 1.39.13 2.2 1.66 2.32 5.89 6.46-.9 2.58h-1.02l-.52 2.58 3.34 4.26 3.07.26 6.15 8.52 3.45.26 2.69 1.94.13 3.87 10.64 6.2h3.96l2.44-2.07 3.07-.13 1.79 4.13 11.49 1.6.34-4.22 3.8-1.38.17-1.51-3.02-4.13-6.75-5.42 3.55-3.23-.26-1.42-4.43-.69-1.88-14.98-.22-3.44-12.03-4.61-5.34 1.21-2.98 3.66-2.64-.18-.77.65-5.89-.38-7.43-5.43-2.77-3.02-1.26.3-2.29 2.61z"/><path d="m609.28 226.19l-2.43 2.58-8.96-.26-5.38-3.23-5.25-.13-6.02 4.27-5.64.26-.51 3.22h-6.4l-2.56 2.33v1.29l1.54 1.29v1.43l-.65 1.68.65 1.42 2.05-1.03 2.06 2.2-.52 1.55-.76 1.04 1.15 1.29 5.64 1.16 3.96-1.68v-2.45l1.93.38 4.61 2.71 4.99-.77 2.18-2.07 1.41.51v2.33h1.92l1.66-3.22 14.6-1.56 6.37-.77-1.68-2.21-.03-2.99 1.28-1.53-4.66-3.74.25-3.22h-2.56z"/><path d="m623.81 313.71l1.57 4.68v4.57l3.78 3.43 26.65-10.86.25-2.98-4.28-7.68-10.72 3.42-6.15 6.06-7.14-4.22z"/><path d="m652.65 304.53l8.07-4.65 1.43-6.84-1.77-1.02.74-7.32 1.54-.9 1.65 2.59 9.82 5.14v2.86l-11.9 17.52-5.47.19z"/><path d="m647.87 287.15l.95 3.8 10.78.95.75-7.8 2.08-1.14.57-2.85-3.4.95-3.78 5.72z"/><path d="m646.36 280.68l-.56 4.38 1.68 1.28 1.53-.14.57-5.52-1.33-.96z"/><path d="m636.16 267.72l-2.46-1.34-1.71 1.72.19 3.43 3.97 1.52z"/><path d="m636.93 274.36l7.66 10.68 2.47 1.97 1.11 4.79 11.79.92 1.33.7-1.32 5.91-7.75 4.57-11.33 3.43-6.04 5.91-7.18-4.19-4.35 3.8-6.06-9.89-4.15-1.9-1.51-2.29v-4.95l-15.11-18.28-.57-3.24h4.35l5.29-4.57.18-2.29-1.51-1.52 3.03-2.47 6.43.39 10.96 9.14 6.47-.3.41 1.6z"/><path d="m596.14 247.99l-.39 2.78 3.09 1.29-.13 7.7 3.08-.07 3.08-2.33 1.16-.19 6.99-5.57 1.41-8.08-13.98 1.42-1.47 3.24z"/><path d="m615.41 243.51l-1.7 8.43-7.06 5.88.45 2.78 6.89.47 10.99 8.94 6.14-.17.16-2.07 2.25-2.41 3.15 1.78.42-.39-6.09-8.11-2.89-.17-3.83-4.93.76-3.63 1.17-.16.41-1.6-5.23-5.5z"/><path d="m598.57 260.73l-2.68 9.38-.12 1.44h4.22l4.74-4.18.12-1.59-1.94-1.98 3.47-2.87-.51-2.67-.95.22-2.88 2.07z"/><path d="m595.62 251.61l.07 2.13-.9 3.24 3.08.26.2-4.59z"/><path d="m594.66 257.76l-1.72 5.5 2.24 6.59 2.56-9.63v-2.07z"/><path d="m592.36 248.77l1.34.97-4.16 3.95-1.99-.07-1.48-1.03.2-1.94 3.02-.2z"/><path d="m562.03 109.14l2.21-1.62-.2-1.81-1.4-.81.2-2.22h1.2v-1.21l-5.21-1.41-7.82.81-.79 3.43-1.81-.6-1.2-2.02-3.81.19-.41 3.84-1.8.81-1.01-2.02-8.02 6.46 1.61 1.81-3.01 1.41-6.82 13.54-2.4 1.62.2 1.21 2.4 1.22-.6 2.62-4.01-.21-1.2-1.41-2.6 3.03-1.61 1.21-.4 2.84-1.4.8-3.61.81-1.8 5.67 1.2 9.29 1.4 4.24 1.61 1.62 3.6-.19 5.21-5.06 2-3.43.61 5.05 3.4-6.06.2-16.98 2.78-1.75.83-9.37 8.41-12.12 4.01-1.41 1.81-2.22 6.01 1.41 3 1.81 1.01-5.05 5.01-3.03z"/><path d="m486.25 160.47l-2 3.03.8 1.21h4.61v2.02l-1.2 1.62.8 4.24 2.6 5.05 2 4.65 3.2 1.21 1.4 2.43-.2 2.22-2 1.22-.19 1 1.4.81-1.21 1.62-2.8 1.21-5.41-.6-8.43 3.84-2.81-1.41 8.02-4.65-1-.6-4.21-.4 2.6-3.84.41-3.24 3.4-.4-.6-6.27-4.01-.2-1.2-1.41.2-4.64-2.41.19 2.41-8.08 4.41-3.23z"/><path d="m477.84 174.01l-3.61.41-.19 3.24 2.4 1.61 2.6-.6 1.01-1.81z"/><path d="m479.03 179.57l-.99 6.56-8.82 3.24h-2.81l-2-1.41v-1.22l4.41-2.83-1.2-2.43.2-3.43 3.81.2 1.75-4.12-.23 3.66 2.96 2.35z"/><path d="m542.64 111.81l2.15 1.98h4.01l2.2 4.24.6 7.27-5.41 3.84v3.84l-3.81 5.26-2.21.2-3 5.05.19 4.85 5.22 3.84-.41 2.22-2 3.03-3 2.62.19 8.69-4.61 1.62-1.6 3.44h-2.21l-1.2-6.06-5.02-7.7 4.12-6.9.29-17.04 2.84-1.57.68-9.75 8.1-11.6z"/><path d="m552.56 125.33l2.26.99 1.4 2.62-1.4 1.82-7.02 7.68-1.2 4.04 1.61 5.86 5.41 4.05 7.21-3.44 5.81-.81 5.41-8.69-4.01-9.5-3.81-9.1.6-5.86-2.41-.4-.62-4.28-3.23-5.28-3.59 2.48-1.41 5.77-3.8-2.29-5.29-1.29-1.18 1.38 2.03 1.84 3.71-.07 2.98 4.82z"/><path d="m564.88 162.97l-7.48-1.21.16 4.18 6.94 4.25 2.84-.83-.16-3.2z"/><path d="m552.52 158.89l-1.69-.05-.99.99.72 1.05 1.69.11.87-1.27z"/><path d="m552.36 163.35l-1.64-.16-2.95 3.53v1.65l.98.39 1.91.05 3.17-2.59.44-.89z"/><path d="m556.95 166.61l-2.35-.05-3.23 3.08h-2.73l.17 3.86-1.64 3.03 5.9.05 1.69-.21 1.7 2.04 3.88-.16 3.71-4.74-.22-2.81z"/><path d="m556.78 179.28l1.64 2.71-.65 2.15.11 1.7.6 2.05 3.39-1.92 4.2.1 2.95 1.22h7.49l2.19-5.24 1.31-1.98v-1.32l-4.7-6.62-4.15-1.65-3.39-.38-2.95.94.11 2.97-4.1 5.19z"/><path d="m557.66 188.55l.93 1.7.22 1.82-.77 1.76-1.75 3.36-1.47.67-1.92-.83-1.14.05-2.79 1.05-3.17-.94-5.13-3.64-5.03-2.7-2.02-3.08-.39-7.27 3.94-3.42 5.13-1.71 1.92-.22-.77 1.54.49.6 8.65.17 1.86-.06 3.06 4.69-.77 1.93.33 2.26z"/><path d="m488.7 221.61h-13.92l-2.81-1.27-1.35.1-1.64 3.41.57 3.51 5.33.49.67 2.24-2.31 13.07.1 2.34 3.77 2.05 4.35.29 8.69-2.14 4.26-5.36.09-5.46 7.54-6.82.39-3.02-6.87-.1z"/><path d="m469.65 228.43l-.67 9.46-1.94 1.75.2 1.07 1.35 2.24-.87 2.74 1.45.49 3.39-.4-.2-2.73 2.22-12.67-.48-1.75z"/><path d="m502.62 234.96l-1.73.59.38 1.56h2.51l1.06-1.17z"/><path d="m520.61 230.77l-2.89 1.47.38 5.65 2.32.39 1.73-1.66v-5.36z"/><path d="m520.91 223.75l-2.13 2.15-.2 1.94 1.74 1.07.67-.09.39-2.84z"/><path d="m501.86 192.85l-2.42.59-4.83 5.26-1.45.1-1.93-1.37-1.26.3-.96 3.02-7.06.19.19 1.57 4.83 3.21 5.61 4.49-.1 5.35-2.99 5.26 6.48 3.12 6.58.2 2.03-2.34 4.15.09 1.16 1.08 4.15-.3 2.13-2.73-2.71-3.22-.19-2.04.58-2.24-1.36-1.95-2.31.68-.3-1.75 5.13-5.65v-3.42l-3.39-1.94-1.74-.3z"/><path d="m512.45 181.45l-4.95 2.44 1.05.95.11 2.44-1.05-.21-1.16-1.8-2.77 4.38 4.26.89 1.58 1.67.84.02.56-3.78 2.68-1.13z"/><path d="m503.18 190.47l-.7 1.75 7.52 4.96 2.16.52.08-2.35-1.89-2.12h-1.16l-1.58-1.81z"/><path d="m513.6 181.02l3.9-.63v-2.76l3.26-.53 1.8 1.8 1.89.21 2.95-1.28 2.63.74 2.32 2.02.32 7.53 2.31 3.08-3.05.43-5.06 3.18.43 1.06 4.52 4.24-.31 2.12-4.21 2.13-3.9.11-.95 2.01h-2l-.95-2.12-3.48-.86-.11-3.5-2.95-2.01.32-2.55-2-2.75.52-3.61 2.74-1.28z"/><path d="m519.75 163.11l-4.54 5.02-.16 3.27 2.06 5.39 3.24-.61-.4-4.41 2.22-2.49-.04-1.96-1.57-4.08z"/><path d="m524.85 172.01l-1.01-.04-1.34 1.22.17 1.92 3.15.09.17-2.17z"/><path d="m543.48 161.66l-2.3 1.82 1.16 2.68 2.04-1.99z"/><path d="m515.53 204.53l-4.76 5.07.09.52 1.96-.61 1.76 2.45 2.97-1.05 2.06 1.59.84-.48 2.53-3.98-.64-.61-2.5-.07-1.22-2.48z"/><path d="m532.49 199.6h3.25 1.59l2.59 1.85 4.8-3.99-4.66-3.33-4.61-2.23-3.16.57-4.28 2.76z"/><path d="m540.59 202.07l.75.67.1 1.13 8.34-.18 6.16-2.66-.1-2.7-1.18.53-1.69-.91-1.04-.05-2.73 1.1-3.72-.9z"/><path d="m523.97 205.34l-.71 1.48.61 1.05 2.54-.53h2.17l2.35 1.99 4.99-.91 3.67-2.18.94-1.48-.14-1.9-3.3-2.47-4.42.04-.38 2.52-4.65 2.27z"/><path d="m541.57 204.77l-1.27 1.99.1 3.04 2.02 1.04 6.22.19 8.67-7.31.04-1.62-.94-.47-6.26 2.85z"/><path d="m539.45 207.38l-2.77 1.67-5.18 1.13 1.03 3 3.63.04 3.35-2.8z"/><path d="m540.35 210.85l-3.86 3.18h-3.91l-.47 2.76 1.79.47.9-1.34 1.41 1.24 1.12 3.94 7.73 3.6.76-.87-7.83-8.09.8-1.48 7.44-.28.75-2.37-4.85.14z"/><path d="m539.45 214.98l-.4.67 7.33 7.57 2.69-3.96-.1-1.56-2.35-2.86z"/><path d="m514.83 212.84l-.68 1.72.19 1.87 2.61 3.05 4.11-.14 9.07 10.54 5.66 1.64 3.35 3.16.79 7.2 1.8-1.05 1.55-3.92-.39-2.82 2.66-.25.38-1.59-7.48-3.59-7.11-6.98-2.83-4.18-.69-3.97 3.62-.86-.93-2.62-2.22-1.87-1.91-.08-2.66.73-2.52 3.52-1.52 1-2.35-1.44z"/><path d="m536.87 241.31l-1.58-.85-5.41.85.18 1.47 4.87 2.45.73.8 1.28.18z"/><path d="m537.06 249.46l-1.83.37.07 2.02 1.64.55.73-.61z"/><path d="m562.15 186.79l-3.17 1.78.79 3.37-2.93 6.17.02 2.73 1.38.87 8.83.44 2.47-2.05 2.64.89 3.79 5.06-2.77 4.99 3.3.96 4.32-4.98 2.47.45 2.29 1.6-2.02 2.67 2.73 4.26h2.91l1.49-2.84 3.09-.63.08-2.3-5.72-.89.17-2.48h5.55l5.99-4.8 2.65-2.31.43-7.28-11.8-1.06-4.84-6.83-3.34-1.15-4.06.17-1.82 4.52-8.31.11-2.7-1.25z"/><path d="m567.81 202.71l3.39 5.21-.29 2.95 1.22.06 2.87-4.87-3.45-4.28-1.96-.81z"/><path d="m558.45 202.58l-.29 1.62-6.33 5.27 5.29 7.77 3.39 2.37h6.1l2.01-1.68 2.7-.35 2.01 1.21 3.56-4.06-.69-2.03-3.61-.93-2.47-.12.12-3.48-3.28-5.16z"/><path d="m551.2 210.17l-2.24 1.69h-1.09l-.75 2.31 2.65 3.08.17 2.44-3.28 4.63.46 1.39 1.91.35 1.49-2.03.81-.06 1.38 1.34 4.19-1.28-.35-5.97z"/><path d="m557.64 218.76l.17 5.44 1.84 3.83 6.89.12 3.11-2.2 3.05-1.21-.75-3.48.69-1.86-1.55-.81-2.13.18-1.67 1.68-7.02.06z"/><path d="m549.53 226.81v5.04l1.44 2.73 1.04-.12 1.78-3.25-1.04-1.45-.4-3.6-1.38-1.28z"/><path d="m557.07 224.9l-3.68 1.21.17 3.13.86 1.11 4.38-2.04z"/><path d="m552.47 235.39l-.12 1.45 5.06 2.55 2.41.93-1.27 1.33-2.81.29-.41 1.28.97 2.19 3.16 1.69 1.38.12.17-3.77 2.07-2.5-5.64-6.67.74-2.26 1.33-.06 2.01 1.62 1.26-.63.41-2.26 5.92.05.23-3.48-2.47 1.74-7.24-.17-4.71 2.43z"/><path d="m570.29 226.75l-.17 3.88 3.38-1.04 1.56-1.04-.46-1.68-1.61-1.28z"/><path d="m563.45 249.59l1.78.05.75 1.11h2.59l1.72-.64.58.7-1.15 1.51-5.06.18-.91-1.22-.98-.57z"/></g><g fill="#585858"><path d="m744.44 111.29c.915-.937 1.627-2.072 2.066-3.336l.005-.008h-.002c.319-.923.493-1.914.493-2.945 0-4.971-4.03-9-9-9-4.971 0-9 4.03-9 9 0 1.032.174 2.023.493 2.945h-.002l.005.008c.439 1.264 1.151 2.399 2.066 3.336l6.438 10.394 6.438-10.394m-6.438-.562c3.163 0 5.727-2.564 5.727-5.727 0-3.163-2.564-5.727-5.727-5.727-3.163 0-5.727 2.564-5.727 5.727 0 3.163 2.564 5.727 5.727 5.727"/><path d="m598.44 326.29c.915-.937 1.627-2.072 2.066-3.336l.005-.008h-.002c.319-.923.493-1.914.493-2.945 0-4.971-4.03-9-9-9-4.971 0-9 4.03-9 9 0 1.032.174 2.023.493 2.945h-.002l.005.008c.439 1.264 1.151 2.399 2.066 3.336l6.438 10.394 6.438-10.394m-6.438-.562c3.163 0 5.727-2.564 5.727-5.727 0-3.163-2.564-5.727-5.727-5.727-3.163 0-5.727 2.564-5.727 5.727 0 3.163 2.564 5.727 5.727 5.727"/><path d="m515.44 197.29c.915-.937 1.627-2.072 2.066-3.336l.005-.008h-.002c.319-.923.493-1.914.493-2.945 0-4.971-4.03-9-9-9-4.971 0-9 4.03-9 9 0 1.032.174 2.023.493 2.945h-.002l.005.008c.439 1.264 1.151 2.399 2.066 3.336l6.438 10.394 6.438-10.394m-6.438-.562c3.163 0 5.727-2.564 5.727-5.727 0-3.163-2.564-5.727-5.727-5.727-3.163 0-5.727 2.564-5.727 5.727 0 3.163 2.564 5.727 5.727 5.727"/><path d="m544.44 184.29c.915-.937 1.627-2.072 2.066-3.336l.005-.008h-.002c.319-.923.493-1.914.493-2.945 0-4.971-4.03-9-9-9-4.971 0-9 4.03-9 9 0 1.032.174 2.023.493 2.945h-.002l.005.008c.439 1.264 1.151 2.399 2.066 3.336l6.438 10.394 6.438-10.394m-6.438-.562c3.163 0 5.727-2.564 5.727-5.727 0-3.163-2.564-5.727-5.727-5.727-3.163 0-5.727 2.564-5.727 5.727 0 3.163 2.564 5.727 5.727 5.727"/><path d="m305.44 171.29c.915-.937 1.627-2.072 2.066-3.336l.005-.008h-.002c.319-.923.493-1.914.493-2.945 0-4.971-4.03-9-9-9-4.971 0-9 4.03-9 9 0 1.032.174 2.023.493 2.945h-.002l.005.008c.439 1.264 1.151 2.399 2.066 3.336l6.438 10.394 6.438-10.394m-6.438-.562c3.163 0 5.727-2.564 5.727-5.727 0-3.163-2.564-5.727-5.727-5.727-3.163 0-5.727 2.564-5.727 5.727 0 3.163 2.564 5.727 5.727 5.727"/><path d="m332.44 390.29c.915-.937 1.627-2.072 2.066-3.336l.005-.008h-.002c.319-.923.493-1.914.493-2.945 0-4.971-4.03-9-9-9-4.971 0-9 4.03-9 9 0 1.032.174 2.023.493 2.945h-.002l.005.008c.439 1.264 1.151 2.399 2.066 3.336l6.438 10.394 6.438-10.394m-6.438-.562c3.163 0 5.727-2.564 5.727-5.727 0-3.163-2.564-5.727-5.727-5.727-3.163 0-5.727 2.564-5.727 5.727 0 3.163 2.564 5.727 5.727 5.727"/></g><g stroke="#f72c12"><path d="m545 164c0 0 49.15-63 174-63"/><path d="m555 186c0 0 58 27 42 117"/><path d="m500 207c0 0-146 69-162 159"/><path d="m313 174c0 0 55.15 24 180 24"/></g></g></svg>