<svg viewBox="0 0 20 20" xmlns="http://www.w3.org/2000/svg" xmlns:xlink="http://www.w3.org/1999/xlink"><defs><rect id="0" width="20" height="20" rx="3"/><mask id="1" maskContentUnits="userSpaceOnUse" maskUnits="objectBoundingBox" x="0" y="0" width="20" height="20" fill="#fff"><use xlink:href="#0"/></mask></defs><g fill="none" fill-rule="evenodd"><path d="m15.293 8.01l-.486.486-2.917-2.917.486-.486c.537-.537 1.408-.537 1.945 0l.972.972c.536.537.536 1.407 0 1.944m-6.807 5.833c-.134.134-.134.352 0 .486.134.135.352.135.486 0l5.348-5.347-.487-.486-5.348 5.347m-2.431-2.43c-.134.134-.134.352 0 .486.134.134.352.134.486 0l5.348-5.347-.486-.486-5.348 5.347m6.32-4.375l-5.348 5.347c-.269.268-.268.704 0 .972.269.269.704.27.973-.001l5.348-5.346-.973-.973m-4.376 7.777c-.164-.165-.244-.373-.273-.588-.07.011-.14.021-.212.021-.367 0-.712-.144-.972-.403-.26-.261-.403-.605-.403-.972 0-.067.01-.132.019-.197-.222-.03-.428-.128-.589-.289-.015-.015-.021-.036-.035-.053l-.839 3.358 3.349-.838c-.015-.013-.031-.024-.046-.038" fill="#f55952"/><use stroke="#ebebeb" mask="url(#1)" stroke-width="2" xlink:href="#0"/></g></svg>