<?xml version="1.0" encoding="UTF-8" standalone="no"?>
<svg width="112px" height="88px" viewBox="0 0 112 88" version="1.1" xmlns="http://www.w3.org/2000/svg" xmlns:xlink="http://www.w3.org/1999/xlink">
    <!-- Generator: Sketch 39 (31667) - http://www.bohemiancoding.com/sketch -->
    <title>Shape</title>
    <desc>Created with Sketch.</desc>
    <defs></defs>
    <g id="Page-1" stroke="none" stroke-width="1" fill="none" fill-rule="evenodd">
        <g id="Artboard-15" transform="translate(-722.000000, -163.000000)" fill="#08B976">
            <path d="M832.892075,176.591417 L820.408987,164.10806 C818.931574,162.630647 816.535966,162.630647 815.058553,164.10806 L763.058038,216.109114 L740.941043,193.992657 C739.464169,192.515244 737.068291,192.515244 735.591148,193.992657 L723.10806,206.476015 C721.630647,207.953158 721.630647,210.348766 723.10806,211.826179 L760.383225,249.101075 C761.121932,249.840051 762.090254,250.20927 763.058308,250.20927 C764.02663,250.20927 764.994953,249.840051 765.73339,249.101075 L832.892075,181.941312 C833.601675,181.231982 834,180.269588 834,179.266499 C834.000269,178.262872 833.601675,177.301017 832.892075,176.591417 L832.892075,176.591417 Z" id="Shape"></path>
        </g>
    </g>
</svg>