<?xml version="1.0" encoding="UTF-8" standalone="no"?>
<svg width="46px" height="46px" viewBox="0 0 46 46" version="1.1" xmlns="http://www.w3.org/2000/svg" xmlns:xlink="http://www.w3.org/1999/xlink">
    <!-- Generator: Sketch 39 (31667) - http://www.bohemiancoding.com/sketch -->
    <title>Shape</title>
    <desc>Created with Sketch.</desc>
    <defs>
        <linearGradient x1="61.8694233%" y1="72.1621172%" x2="26.7527751%" y2="15.3326425%" id="linearGradient-1">
            <stop stop-color="#BE0048" offset="0%"></stop>
            <stop stop-color="#FF2E00" offset="100%"></stop>
        </linearGradient>
    </defs>
    <g id="Page-1" stroke="none" stroke-width="1" fill="none" fill-rule="evenodd">
        <g id="Artboard-15" transform="translate(-566.000000, -453.000000)" fill="url(#linearGradient-1)">
            <path d="M605.26,459.737 C609.604,464.081 611.996,469.857 611.996,476.001 C611.996,482.145 609.604,487.92 605.26,492.264 C600.916,496.608 595.14,499 588.997,499 C582.853,499 577.078,496.608 572.734,492.264 C568.39,487.92 565.997,482.144 565.997,476.001 C565.997,469.857 568.389,464.082 572.733,459.737 C577.077,455.393 582.853,453 588.997,453 C595.141,453 600.916,455.392 605.26,459.737 M603.227,490.231 C606.06,487.398 607.943,483.87 608.72,480.031 C608.115,480.922 607.536,481.253 607.177,479.258 C606.808,476.006 603.821,478.083 601.943,476.928 C599.966,478.26 595.523,474.338 596.278,478.762 C597.443,480.758 602.567,476.091 600.013,480.314 C598.383,483.262 594.054,489.789 594.618,493.173 C594.689,498.103 589.578,494.201 587.821,492.566 C586.637,489.29 587.418,483.566 584.322,481.961 C580.962,481.815 578.078,481.51 576.775,477.753 C575.991,475.065 577.609,471.064 580.489,470.447 C584.705,467.798 586.211,473.549 590.165,473.656 C591.393,472.371 594.739,471.963 595.016,470.523 C592.422,470.065 598.307,468.342 594.768,467.361 C592.815,467.591 591.557,469.386 592.595,470.908 C588.811,471.79 588.69,465.432 585.052,467.437 C584.96,470.608 579.112,468.465 583.029,467.822 C584.375,467.234 580.834,465.53 582.747,465.84 C583.687,465.789 586.85,464.68 585.994,463.935 C587.755,462.842 589.236,466.553 590.96,463.85 C592.205,461.772 590.438,461.388 588.878,462.441 C587.998,461.456 590.431,459.329 592.577,458.411 C593.292,458.105 593.975,457.938 594.497,457.985 C595.578,459.233 597.576,459.45 597.681,457.835 C595.005,456.553 592.053,455.876 588.998,455.876 C584.613,455.876 580.442,457.27 576.988,459.847 C577.916,460.272 578.442,460.801 577.549,461.477 C576.855,463.546 574.038,466.323 571.564,465.93 C570.28,468.144 569.434,470.584 569.073,473.141 C571.144,473.826 571.622,475.183 571.177,475.636 C570.122,476.556 569.473,477.861 569.139,479.289 C569.813,483.415 571.752,487.217 574.766,490.231 C578.567,494.032 583.621,496.125 588.996,496.125 C594.372,496.125 599.425,494.032 603.226,490.231" id="Shape"></path>
        </g>
    </g>
</svg>